<svg width="54" height="54" viewBox="0 0 54 54" fill="none" xmlns="http://www.w3.org/2000/svg">
<path d="M38.2499 20.6325C37.8284 20.2134 37.2581 19.9782 36.6637 19.9782C36.0693 19.9782 35.499 20.2134 35.0774 20.6325L26.9999 28.5975L19.0349 20.6325C18.6134 20.2134 18.0431 19.9782 17.4487 19.9782C16.8543 19.9782 16.284 20.2134 15.8624 20.6325C15.6516 20.8417 15.4842 21.0905 15.3699 21.3647C15.2557 21.6389 15.1969 21.933 15.1969 22.23C15.1969 22.527 15.2557 22.8211 15.3699 23.0953C15.4842 23.3695 15.6516 23.6183 15.8624 23.8275L25.4024 33.3675C25.6116 33.5784 25.8605 33.7458 26.1346 33.86C26.4088 33.9742 26.7029 34.033 26.9999 34.033C27.297 34.033 27.5911 33.9742 27.8652 33.86C28.1394 33.7458 28.3883 33.5784 28.5974 33.3675L38.2499 23.8275C38.4608 23.6183 38.6282 23.3695 38.7425 23.0953C38.8567 22.8211 38.9155 22.527 38.9155 22.23C38.9155 21.933 38.8567 21.6389 38.7425 21.3647C38.6282 21.0905 38.4608 20.8417 38.2499 20.6325Z" fill="white"/>
</svg>
