<svg width="536" height="598" viewBox="0 0 536 598" fill="none" xmlns="http://www.w3.org/2000/svg">
<mask id="mask0_23_909" style="mask-type:luminance" maskUnits="userSpaceOnUse" x="119" y="144" width="315" height="155">
<path d="M333.624 215.471C346.293 179.559 381.778 152.175 433.634 144.243C410.548 209.691 320.649 273.63 232.842 287.059C178.157 295.417 137.184 282.219 119.621 255.262C205.242 207.376 304.948 226.889 342.334 298.849C339.451 293.773 335.322 287.167 332.02 282.348C330.321 279.871 327.607 276.9 325.712 274.564C324.209 272.717 317.638 265.813 311.729 261.197C308.075 258.348 302.978 254.828 299.019 252.419C296.089 250.632 291.94 248.669 288.813 247.248C285.686 245.827 281.7 244.487 278.546 243.634C277.098 243.241 275.135 242.795 273.66 242.531C272.841 242.382 271.737 242.24 270.912 242.138C270.826 242.129 270.377 242.091 269.565 242.023C270.939 241.969 273.423 241.732 277.436 240.893C281.971 239.945 286.309 238.524 286.356 238.51C288.982 237.644 292.231 236.575 296.725 234.673C298.349 233.982 300.494 233.028 302.085 232.27C303.675 231.512 305.841 230.415 307.438 229.583C308.846 228.852 312.656 226.808 317.563 223.654C318.964 222.754 320.805 221.502 322.165 220.534C323.424 219.64 325.062 218.388 326.294 217.454C326.328 217.427 329.522 214.997 332.906 211.783C333.691 211.038 334.72 210.016 335.458 209.217C336.141 208.48 337.014 207.451 337.644 206.673C337.644 206.673 337.644 206.673 337.644 206.679C337.143 207.498 336.737 208.223 336.304 209.089C335.871 209.942 335.363 211.113 334.97 211.979C334.503 213.001 334.03 214.422 333.624 215.464V215.471Z" fill="white"/>
</mask>
<g mask="url(#mask0_23_909)">
<path d="M433.634 144.243C345.826 157.671 304.948 226.889 342.334 298.849C304.948 226.889 255.928 221.61 232.842 287.059C320.65 273.63 410.548 209.691 433.634 144.243Z" stroke="white" stroke-opacity="0.15" stroke-width="2" stroke-miterlimit="10"/>
<path d="M362.631 174.307C351.193 206.72 306.674 238.388 263.183 245.042" stroke="white" stroke-opacity="0.15" stroke-width="2" stroke-miterlimit="10"/>
<path d="M329.881 229.766C326.727 238.7 314.457 247.431 302.471 249.265" stroke="white" stroke-opacity="0.15" stroke-width="2" stroke-miterlimit="10"/>
<path d="M390.826 207.376C326.659 185.935 304.948 226.889 342.334 298.849" stroke="white" stroke-opacity="0.15" stroke-width="2" stroke-miterlimit="10"/>
<path d="M318.795 258.612C294.41 208.872 304.955 226.889 342.334 298.849" stroke="white" stroke-opacity="0.15" stroke-width="2" stroke-miterlimit="10"/>
<path d="M232.842 287.059C255.928 221.61 304.955 226.889 342.334 298.849C304.948 226.889 203.462 179.437 115.655 192.865C92.5694 258.314 145.035 300.487 232.842 287.059Z" stroke="white" stroke-opacity="0.15" stroke-width="2" stroke-miterlimit="10"/>
<path d="M263.183 245.035C219.692 251.688 193.71 230.801 205.141 198.382" stroke="white" stroke-opacity="0.15" stroke-width="2" stroke-miterlimit="10"/>
<path d="M302.464 249.265C290.478 251.099 283.311 245.339 286.465 236.405" stroke="white" stroke-opacity="0.15" stroke-width="2" stroke-miterlimit="10"/>
<path d="M158.307 283.153C222.562 219.864 304.955 226.896 342.341 298.849" stroke="white" stroke-opacity="0.15" stroke-width="2" stroke-miterlimit="10"/>
<path d="M342.334 298.849C379.72 370.808 481.206 418.254 569.013 404.825C545.928 470.274 456.029 534.213 368.221 547.641C391.307 482.193 379.72 370.808 342.334 298.849Z" stroke="white" stroke-opacity="0.15" stroke-width="2" stroke-miterlimit="10"/>
<path d="M342.334 298.849C379.72 370.808 462.039 446.518 526.206 467.959" stroke="white" stroke-opacity="0.15" stroke-width="2" stroke-miterlimit="10"/>
<path d="M342.334 298.849C379.72 370.808 429.79 469.455 454.174 519.195" stroke="white" stroke-opacity="0.15" stroke-width="2" stroke-miterlimit="10"/>
<path d="M342.334 298.849C379.72 370.808 391.307 482.193 368.221 547.641C280.414 561.069 227.949 518.897 251.034 453.448C338.842 440.02 379.72 370.808 342.334 298.849Z" stroke="white" stroke-opacity="0.15" stroke-width="2" stroke-miterlimit="10"/>
<path d="M342.334 298.849C379.72 370.808 357.934 480.44 293.679 543.729" stroke="white" stroke-opacity="0.15" stroke-width="2" stroke-miterlimit="10"/>
<path d="M333.624 215.471C346.293 179.559 381.778 152.175 433.634 144.243C410.548 209.691 320.649 273.63 232.842 287.059C178.157 295.417 137.184 282.219 119.621 255.262C205.242 207.376 304.948 226.889 342.334 298.849C339.451 293.773 335.322 287.167 332.02 282.348C330.321 279.871 327.607 276.899 325.712 274.564C324.209 272.717 317.638 265.813 311.729 261.197C308.075 258.348 302.978 254.828 299.019 252.419C296.089 250.632 291.94 248.669 288.813 247.248C285.686 245.827 281.7 244.487 278.546 243.634C277.098 243.241 275.135 242.794 273.66 242.531C272.841 242.382 271.737 242.239 270.912 242.138C270.826 242.129 270.377 242.091 269.565 242.023C270.939 241.969 273.423 241.732 277.436 240.893C281.971 239.945 286.309 238.524 286.356 238.51C288.982 237.644 292.231 236.575 296.725 234.673C298.349 233.982 300.494 233.028 302.085 232.27C303.675 231.512 305.841 230.415 307.438 229.583C308.846 228.852 312.656 226.808 317.563 223.654C318.964 222.754 320.805 221.502 322.165 220.534C323.424 219.64 325.062 218.388 326.294 217.454C326.328 217.427 329.522 214.997 332.906 211.783C333.691 211.038 334.72 210.016 335.458 209.217C336.141 208.48 337.014 207.451 337.644 206.673C337.644 206.673 337.644 206.673 337.644 206.679C337.143 207.498 336.737 208.222 336.304 209.089C335.871 209.942 335.363 211.113 334.97 211.979C334.503 213.001 334.03 214.422 333.624 215.464V215.471Z" stroke="white" stroke-opacity="0.15" stroke-width="2" stroke-miterlimit="10"/>
</g>
<mask id="mask1_23_909" style="mask-type:luminance" maskUnits="userSpaceOnUse" x="269" y="206" width="74" height="93">
<path d="M273.612 241.603C275.148 241.346 277.998 240.872 281.463 239.938C284.434 239.133 288.346 237.867 291.249 236.838C292.908 236.25 295.107 235.404 296.711 234.679C298.315 233.955 300.501 233.028 302.098 232.263C303.696 231.498 305.875 230.436 307.452 229.576C309.029 228.717 311.113 227.58 312.65 226.679C314.186 225.779 316.095 224.602 317.543 223.668C320.622 221.691 322.287 220.493 326.206 217.529C326.24 217.502 329.597 214.93 332.757 211.938C335.444 209.393 336.906 207.674 337.657 206.679C337.278 207.295 336.94 207.898 336.92 207.938C336.513 208.71 335.979 209.739 335.613 210.537C334.95 211.986 334.179 213.975 333.624 215.471C324.839 240.378 327.025 269.38 342.334 298.849C339.255 293.488 335.234 286.226 331.336 281.434C329.448 279.106 327.059 275.884 324.974 273.732C321.177 269.813 316.061 264.575 311.756 261.218C309.895 259.762 307.432 257.779 305.435 256.507C303.438 255.234 301.002 253.59 299.039 252.439C297.077 251.289 294.627 249.915 292.644 249.014C289.496 247.586 285.287 245.671 281.984 244.669C279.92 244.047 277.159 243.255 275.054 242.808C274.16 242.619 272.962 242.415 272.062 242.287C271.71 242.239 270.891 242.124 269.558 242.036C270.018 242.003 270.627 241.976 271.088 241.928C271.846 241.847 272.861 241.732 273.619 241.603H273.612Z" fill="white"/>
</mask>
<g mask="url(#mask1_23_909)">
<path d="M433.634 144.243C345.826 157.671 304.948 226.889 342.334 298.849C304.948 226.889 255.928 221.61 232.842 287.059C320.65 273.63 410.548 209.691 433.634 144.243Z" stroke="white" stroke-opacity="0.15" stroke-width="2" stroke-miterlimit="10"/>
<path d="M329.881 229.766C326.727 238.7 314.457 247.431 302.471 249.265" stroke="white" stroke-opacity="0.15" stroke-width="2" stroke-miterlimit="10"/>
<path d="M390.826 207.376C326.659 185.935 304.948 226.889 342.334 298.849" stroke="white" stroke-opacity="0.15" stroke-width="2" stroke-miterlimit="10"/>
<path d="M318.795 258.612C294.41 208.872 304.955 226.889 342.334 298.849" stroke="white" stroke-opacity="0.15" stroke-width="2" stroke-miterlimit="10"/>
<path d="M232.842 287.059C255.928 221.61 304.955 226.889 342.334 298.849C304.948 226.889 203.462 179.437 115.655 192.865C92.5694 258.314 145.035 300.487 232.842 287.059Z" stroke="white" stroke-opacity="0.15" stroke-width="2" stroke-miterlimit="10"/>
<path d="M302.464 249.265C290.478 251.099 283.311 245.339 286.465 236.405" stroke="white" stroke-opacity="0.15" stroke-width="2" stroke-miterlimit="10"/>
<path d="M158.307 283.153C222.562 219.864 304.955 226.896 342.341 298.849" stroke="white" stroke-opacity="0.15" stroke-width="2" stroke-miterlimit="10"/>
<path d="M342.334 298.849C379.72 370.808 481.206 418.253 569.013 404.825C545.928 470.274 456.029 534.213 368.221 547.641C391.307 482.193 379.72 370.808 342.334 298.849Z" stroke="white" stroke-opacity="0.15" stroke-width="2" stroke-miterlimit="10"/>
<path d="M342.334 298.849C379.72 370.808 462.039 446.518 526.206 467.959" stroke="white" stroke-opacity="0.15" stroke-width="2" stroke-miterlimit="10"/>
<path d="M342.334 298.849C379.72 370.808 429.79 469.455 454.174 519.195" stroke="white" stroke-opacity="0.15" stroke-width="2" stroke-miterlimit="10"/>
<path d="M342.334 298.849C379.72 370.808 391.307 482.193 368.221 547.641C280.414 561.069 227.949 518.897 251.034 453.448C338.842 440.02 379.72 370.808 342.334 298.849Z" stroke="white" stroke-opacity="0.15" stroke-width="2" stroke-miterlimit="10"/>
<path d="M342.334 298.849C379.72 370.808 357.934 480.44 293.679 543.729" stroke="white" stroke-opacity="0.15" stroke-width="2" stroke-miterlimit="10"/>
<path d="M273.612 241.603C275.148 241.346 277.998 240.872 281.463 239.938C284.434 239.133 288.346 237.867 291.249 236.838C292.908 236.25 295.107 235.404 296.711 234.679C298.315 233.955 300.501 233.028 302.098 232.263C303.696 231.498 305.875 230.436 307.452 229.576C309.029 228.717 311.113 227.58 312.65 226.679C314.186 225.779 316.095 224.602 317.543 223.668C320.622 221.691 322.287 220.493 326.206 217.529C326.24 217.502 329.597 214.93 332.757 211.938C335.444 209.393 336.906 207.674 337.657 206.679C337.278 207.295 336.94 207.898 336.92 207.938C336.513 208.71 335.979 209.739 335.613 210.537C334.95 211.986 334.179 213.975 333.624 215.471C324.839 240.378 327.025 269.38 342.334 298.849C339.255 293.488 335.234 286.226 331.336 281.434C329.448 279.106 327.059 275.884 324.974 273.732C321.177 269.813 316.061 264.575 311.756 261.218C309.895 259.762 307.432 257.779 305.435 256.507C303.438 255.234 301.002 253.59 299.039 252.439C297.077 251.289 294.627 249.915 292.644 249.014C289.496 247.586 285.287 245.671 281.984 244.669C279.92 244.047 277.159 243.255 275.054 242.808C274.16 242.619 272.962 242.415 272.062 242.287C271.71 242.239 270.891 242.124 269.558 242.036C270.018 242.003 270.627 241.976 271.088 241.928C271.846 241.847 272.861 241.732 273.619 241.603H273.612Z" stroke="white" stroke-opacity="0.15" stroke-width="2" stroke-miterlimit="10"/>
</g>
<mask id="mask2_23_909" style="mask-type:luminance" maskUnits="userSpaceOnUse" x="110" y="47" width="325" height="252">
<path d="M119.621 255.262C108.988 238.93 106.944 217.556 115.655 192.865C138.74 127.417 228.639 63.4776 316.447 50.0495C377.433 40.7229 421.377 58.2187 434.791 91.7078C346.341 134.151 304.948 226.889 342.334 298.842C304.948 226.882 205.242 207.37 119.621 255.255V255.262Z" fill="white"/>
</mask>
<g mask="url(#mask2_23_909)">
<path d="M232.842 287.059C255.928 221.61 304.955 226.889 342.334 298.849C304.948 226.889 203.462 179.437 115.655 192.865C92.5694 258.314 145.035 300.487 232.842 287.059Z" stroke="white" stroke-opacity="0.15" stroke-width="2" stroke-miterlimit="10"/>
<path d="M263.183 245.035C219.692 251.688 193.71 230.801 205.141 198.381" stroke="white" stroke-opacity="0.15" stroke-width="2" stroke-miterlimit="10"/>
<path d="M302.464 249.265C290.478 251.099 283.311 245.339 286.465 236.405" stroke="white" stroke-opacity="0.15" stroke-width="2" stroke-miterlimit="10"/>
<path d="M116.264 249.36C203.74 204.73 304.955 226.889 342.334 298.849" stroke="white" stroke-opacity="0.15" stroke-width="2" stroke-miterlimit="10"/>
<path d="M115.655 192.865C203.462 179.437 304.948 226.889 342.334 298.849C304.948 226.889 293.361 115.505 316.446 50.0562C228.639 63.4843 138.74 127.424 115.655 192.872V192.865Z" stroke="white" stroke-opacity="0.15" stroke-width="2" stroke-miterlimit="10"/>
<path d="M205.141 198.388C216.578 165.975 261.098 134.307 304.589 127.654" stroke="white" stroke-opacity="0.15" stroke-width="2" stroke-miterlimit="10"/>
<path d="M286.464 236.405C289.618 227.471 301.889 218.74 313.875 216.906" stroke="white" stroke-opacity="0.15" stroke-width="2" stroke-miterlimit="10"/>
<path d="M158.462 129.738C222.629 151.18 304.955 226.889 342.334 298.849" stroke="white" stroke-opacity="0.15" stroke-width="2" stroke-miterlimit="10"/>
<path d="M230.5 78.503C254.885 128.243 304.955 226.889 342.341 298.849" stroke="white" stroke-opacity="0.15" stroke-width="2" stroke-miterlimit="10"/>
<path d="M316.446 50.0494C293.361 115.498 304.948 226.889 342.334 298.842C304.948 226.882 345.826 157.664 433.634 144.236C456.719 78.7873 404.254 36.6145 316.446 50.0427V50.0494Z" stroke="white" stroke-opacity="0.15" stroke-width="2" stroke-miterlimit="10"/>
<path d="M304.589 127.654C348.08 121.001 374.062 141.887 362.631 174.307" stroke="white" stroke-opacity="0.15" stroke-width="2" stroke-miterlimit="10"/>
<path d="M313.881 216.906C325.867 215.072 333.035 220.832 329.881 229.766" stroke="white" stroke-opacity="0.15" stroke-width="2" stroke-miterlimit="10"/>
<path d="M390.989 53.9615C326.734 117.251 304.955 226.889 342.341 298.849" stroke="white" stroke-opacity="0.15" stroke-width="2" stroke-miterlimit="10"/>
<path d="M433.024 87.7551C345.549 132.385 304.948 226.889 342.334 298.849" stroke="white" stroke-opacity="0.15" stroke-width="2" stroke-miterlimit="10"/>
<path d="M342.334 298.849C379.72 370.808 391.307 482.193 368.221 547.641C280.414 561.07 227.949 518.897 251.034 453.448C338.842 440.02 379.72 370.808 342.334 298.849Z" stroke="white" stroke-opacity="0.15" stroke-width="2" stroke-miterlimit="10"/>
<path d="M342.334 298.849C379.72 370.808 339.112 465.313 251.643 509.942" stroke="white" stroke-opacity="0.15" stroke-width="2" stroke-miterlimit="10"/>
<path d="M342.334 298.849C379.72 370.808 338.842 440.02 251.034 453.448C274.12 388 364.018 324.06 451.826 310.632C428.74 376.081 379.72 370.802 342.334 298.849Z" stroke="white" stroke-opacity="0.15" stroke-width="2" stroke-miterlimit="10"/>
<path d="M342.334 298.849C379.72 370.808 358.009 411.756 293.842 390.321" stroke="white" stroke-opacity="0.15" stroke-width="2" stroke-miterlimit="10"/>
<path d="M342.334 298.849C379.72 370.808 390.258 388.819 365.873 339.086" stroke="white" stroke-opacity="0.15" stroke-width="2" stroke-miterlimit="10"/>
<path d="M342.334 298.849C379.72 370.808 428.74 376.081 451.826 310.632C539.633 297.204 592.099 339.377 569.013 404.825C481.206 418.254 379.72 370.808 342.334 298.849Z" stroke="white" stroke-opacity="0.15" stroke-width="2" stroke-miterlimit="10"/>
<path d="M342.334 298.849C379.72 370.808 462.106 377.834 526.361 314.544" stroke="white" stroke-opacity="0.15" stroke-width="2" stroke-miterlimit="10"/>
<path d="M342.334 298.849C379.72 370.808 480.928 392.961 568.404 348.338" stroke="white" stroke-opacity="0.15" stroke-width="2" stroke-miterlimit="10"/>
<path d="M119.621 255.262C108.988 238.93 106.944 217.556 115.655 192.865C138.74 127.417 228.639 63.4776 316.447 50.0495C377.433 40.7229 421.377 58.2187 434.791 91.7078C346.341 134.151 304.948 226.889 342.334 298.842C304.948 226.882 205.242 207.37 119.621 255.255V255.262Z" stroke="white" stroke-opacity="0.15" stroke-width="2" stroke-miterlimit="10"/>
</g>
<mask id="mask3_23_909" style="mask-type:luminance" maskUnits="userSpaceOnUse" x="328" y="215" width="15" height="84">
<path d="M333.623 215.471C333.136 217.048 332.371 219.119 331.992 220.73C331.201 224.114 330.158 228.642 329.745 232.094C329.475 234.355 329.116 237.366 329.048 239.64C328.933 243.519 328.744 248.71 329.15 252.568C329.421 255.187 329.651 258.7 330.091 261.299C330.774 265.333 331.756 270.72 332.879 274.659C333.779 277.806 335.018 282.003 336.209 285.048C337.86 289.265 340.31 294.795 342.334 298.849C327.025 269.38 324.839 240.378 333.623 215.471Z" fill="white"/>
</mask>
<g mask="url(#mask3_23_909)">
<path d="M316.446 50.0494C293.361 115.498 304.947 226.889 342.334 298.842C304.947 226.882 345.826 157.664 433.633 144.236C456.719 78.7873 404.254 36.6145 316.446 50.0427V50.0494Z" stroke="white" stroke-opacity="0.15" stroke-width="2" stroke-miterlimit="10"/>
<path d="M313.881 216.906C325.867 215.072 333.034 220.832 329.881 229.766" stroke="white" stroke-opacity="0.15" stroke-width="2" stroke-miterlimit="10"/>
<path d="M342.334 298.849C379.72 370.808 428.74 376.081 451.826 310.632C539.633 297.204 592.098 339.377 569.013 404.825C481.205 418.254 379.72 370.808 342.334 298.849Z" stroke="white" stroke-opacity="0.15" stroke-width="2" stroke-miterlimit="10"/>
<path d="M333.623 215.471C333.136 217.048 332.371 219.119 331.992 220.73C331.2 224.114 330.158 228.642 329.745 232.094C329.474 234.354 329.116 237.366 329.048 239.64C328.933 243.519 328.744 248.71 329.15 252.568C329.42 255.187 329.65 258.7 330.09 261.299C330.774 265.333 331.755 270.72 332.879 274.659C333.779 277.806 335.017 282.003 336.209 285.048C337.86 289.265 340.31 294.795 342.334 298.849C327.024 269.38 324.838 240.378 333.623 215.471Z" stroke="white" stroke-opacity="0.15" stroke-width="2" stroke-miterlimit="10"/>
</g>
<mask id="mask4_23_909" style="mask-type:luminance" maskUnits="userSpaceOnUse" x="328" y="91" width="112" height="208">
<path d="M342.334 298.849C304.948 226.889 346.34 134.151 434.791 91.7146C440.692 106.442 440.686 124.256 433.634 144.249C381.777 152.175 346.293 179.559 333.623 215.478C332.656 218.537 331.451 222.652 330.801 225.8C330.151 228.947 329.576 233.407 329.251 236.69C329.021 239.018 328.866 242.138 328.899 244.48C328.954 248.229 329.143 253.231 329.529 256.96C329.806 259.62 330.294 263.153 330.835 265.766C331.62 269.57 332.798 274.625 333.935 278.341C335.877 284.703 339.539 292.825 342.334 298.862V298.849Z" fill="white"/>
</mask>
<g mask="url(#mask4_23_909)">
<path d="M316.446 50.0495C293.361 115.498 304.947 226.889 342.334 298.842C304.947 226.882 345.826 157.664 433.633 144.236C456.719 78.7873 404.254 36.6146 316.446 50.0427V50.0495Z" stroke="white" stroke-opacity="0.15" stroke-width="2" stroke-miterlimit="10"/>
<path d="M304.589 127.654C348.08 121.001 374.062 141.887 362.631 174.307" stroke="white" stroke-opacity="0.15" stroke-width="2" stroke-miterlimit="10"/>
<path d="M313.881 216.906C325.867 215.072 333.034 220.832 329.881 229.766" stroke="white" stroke-opacity="0.15" stroke-width="2" stroke-miterlimit="10"/>
<path d="M342.334 298.849C379.72 370.808 428.74 376.081 451.826 310.632C539.633 297.204 592.098 339.377 569.013 404.825C481.205 418.254 379.72 370.808 342.334 298.849Z" stroke="white" stroke-opacity="0.15" stroke-width="2" stroke-miterlimit="10"/>
<path d="M342.334 298.849C304.947 226.889 346.34 134.151 434.791 91.7146C440.692 106.442 440.685 124.256 433.633 144.249C381.777 152.175 346.293 179.559 333.623 215.478C332.655 218.537 331.451 222.652 330.801 225.8C330.151 228.947 329.576 233.407 329.251 236.69C329.021 239.018 328.865 242.138 328.899 244.48C328.953 248.229 329.143 253.231 329.529 256.96C329.806 259.62 330.293 263.153 330.835 265.766C331.62 269.57 332.798 274.625 333.935 278.341C335.877 284.703 339.538 292.825 342.334 298.862V298.849Z" stroke="white" stroke-opacity="0.15" stroke-width="2" stroke-miterlimit="10"/>
</g>
<mask id="mask5_23_909" style="mask-type:luminance" maskUnits="userSpaceOnUse" x="342" y="298" width="74" height="94">
<path d="M342.334 298.849C344.006 301.942 346.334 306.023 348.229 308.988C349.894 311.593 352.242 314.991 354.191 317.387C355.924 319.519 358.157 322.429 360.079 324.392C361.954 326.307 364.391 328.927 366.347 330.768C368.248 332.561 370.861 334.883 372.925 336.494C376.58 339.343 381.676 342.862 385.635 345.272C388.566 347.059 392.715 349.022 395.835 350.443C398.955 351.864 402.948 353.204 406.102 354.057C407.55 354.45 409.513 354.896 410.988 355.16C411.807 355.309 412.91 355.451 413.736 355.553C413.822 355.562 414.27 355.6 415.083 355.668C413.709 355.722 411.225 355.959 407.211 356.798C402.684 357.746 398.339 359.167 398.291 359.181C395.652 360.047 392.41 361.123 387.923 363.018C386.298 363.709 384.153 364.663 382.563 365.421C380.972 366.179 378.806 367.275 377.209 368.108C375.801 368.839 371.991 370.883 367.084 374.037C365.683 374.937 363.842 376.189 362.482 377.157C361.223 378.05 359.585 379.303 358.354 380.237C358.32 380.264 355.125 382.693 351.741 385.908C350.956 386.653 349.928 387.675 349.19 388.473C348.506 389.211 347.633 390.24 347.004 391.018C347.004 391.018 347.004 391.018 347.004 391.011C347.505 390.193 347.911 389.468 348.344 388.602C348.777 387.749 349.285 386.585 349.677 385.712C350.219 384.507 350.814 382.842 351.247 381.59C352.398 378.267 353.569 373.712 354.171 370.247C354.773 366.781 355.389 362.544 355.531 359.208C355.741 354.368 355.585 347.905 355.342 343.065C355.139 339.065 354.137 333.786 353.399 329.847C352.892 327.133 351.958 323.56 351.18 320.913C349.86 316.426 347.606 310.598 345.867 306.26C344.946 303.972 343.383 301.069 342.32 298.842L342.334 298.849Z" fill="white"/>
</mask>
<g mask="url(#mask5_23_909)">
<path d="M232.842 287.059C255.927 221.61 304.954 226.889 342.334 298.849C304.948 226.889 203.462 179.437 115.655 192.865C92.5692 258.314 145.034 300.487 232.842 287.059Z" stroke="white" stroke-opacity="0.15" stroke-width="2" stroke-miterlimit="10"/>
<path d="M116.264 249.36C203.74 204.73 304.954 226.889 342.334 298.849" stroke="white" stroke-opacity="0.15" stroke-width="2" stroke-miterlimit="10"/>
<path d="M115.655 192.865C203.462 179.437 304.948 226.889 342.334 298.849C304.948 226.889 293.361 115.505 316.446 50.0562C228.639 63.4843 138.74 127.424 115.655 192.872V192.865Z" stroke="white" stroke-opacity="0.15" stroke-width="2" stroke-miterlimit="10"/>
<path d="M158.462 129.738C222.629 151.18 304.955 226.889 342.334 298.849" stroke="white" stroke-opacity="0.15" stroke-width="2" stroke-miterlimit="10"/>
<path d="M230.5 78.503C254.885 128.243 304.955 226.889 342.341 298.849" stroke="white" stroke-opacity="0.15" stroke-width="2" stroke-miterlimit="10"/>
<path d="M316.446 50.0494C293.361 115.498 304.948 226.889 342.334 298.842C304.948 226.882 345.826 157.664 433.634 144.236C456.719 78.7872 404.254 36.6145 316.446 50.0427V50.0494Z" stroke="white" stroke-opacity="0.15" stroke-width="2" stroke-miterlimit="10"/>
<path d="M390.989 53.9615C326.734 117.251 304.955 226.889 342.341 298.849" stroke="white" stroke-opacity="0.15" stroke-width="2" stroke-miterlimit="10"/>
<path d="M433.024 87.7551C345.549 132.385 304.948 226.889 342.334 298.849" stroke="white" stroke-opacity="0.15" stroke-width="2" stroke-miterlimit="10"/>
<path d="M342.334 298.849C379.72 370.808 391.307 482.193 368.221 547.641C280.414 561.069 227.949 518.897 251.034 453.448C338.842 440.02 379.72 370.808 342.334 298.849Z" stroke="white" stroke-opacity="0.15" stroke-width="2" stroke-miterlimit="10"/>
<path d="M370.793 380.785C358.807 382.619 351.64 376.859 354.794 367.925" stroke="white" stroke-opacity="0.15" stroke-width="2" stroke-miterlimit="10"/>
<path d="M342.334 298.849C379.72 370.808 339.112 465.313 251.643 509.942" stroke="white" stroke-opacity="0.15" stroke-width="2" stroke-miterlimit="10"/>
<path d="M342.334 298.849C379.72 370.808 338.842 440.02 251.034 453.448C274.12 388 364.018 324.06 451.826 310.632C428.74 376.081 379.72 370.802 342.334 298.849Z" stroke="white" stroke-opacity="0.15" stroke-width="2" stroke-miterlimit="10"/>
<path d="M354.794 367.925C357.948 358.991 370.218 350.26 382.204 348.426" stroke="white" stroke-opacity="0.15" stroke-width="2" stroke-miterlimit="10"/>
<path d="M342.334 298.849C379.72 370.808 358.009 411.756 293.842 390.321" stroke="white" stroke-opacity="0.15" stroke-width="2" stroke-miterlimit="10"/>
<path d="M342.334 298.849C379.72 370.808 390.258 388.819 365.873 339.086" stroke="white" stroke-opacity="0.15" stroke-width="2" stroke-miterlimit="10"/>
<path d="M342.334 298.849C379.72 370.808 428.74 376.081 451.826 310.632C539.633 297.204 592.098 339.377 569.013 404.825C481.205 418.254 379.72 370.808 342.334 298.849Z" stroke="white" stroke-opacity="0.15" stroke-width="2" stroke-miterlimit="10"/>
<path d="M382.21 348.433C394.196 346.599 401.364 352.358 398.21 361.292" stroke="white" stroke-opacity="0.15" stroke-width="2" stroke-miterlimit="10"/>
<path d="M342.334 298.849C379.72 370.808 462.106 377.834 526.361 314.544" stroke="white" stroke-opacity="0.15" stroke-width="2" stroke-miterlimit="10"/>
<path d="M342.334 298.849C379.72 370.808 480.928 392.961 568.404 348.338" stroke="white" stroke-opacity="0.15" stroke-width="2" stroke-miterlimit="10"/>
<path d="M342.334 298.849C344.006 301.942 346.334 306.023 348.229 308.988C349.894 311.593 352.242 314.991 354.191 317.387C355.924 319.519 358.157 322.429 360.079 324.392C361.954 326.307 364.391 328.927 366.347 330.768C368.248 332.561 370.861 334.883 372.925 336.494C376.58 339.343 381.676 342.862 385.635 345.272C388.566 347.059 392.715 349.022 395.835 350.443C398.955 351.864 402.948 353.204 406.102 354.057C407.55 354.45 409.513 354.896 410.988 355.16C411.807 355.309 412.91 355.451 413.736 355.553C413.822 355.562 414.27 355.6 415.083 355.668C413.709 355.722 411.225 355.959 407.211 356.798C402.684 357.746 398.339 359.167 398.291 359.181C395.652 360.047 392.41 361.123 387.923 363.018C386.298 363.709 384.153 364.663 382.563 365.421C380.972 366.179 378.806 367.275 377.209 368.108C375.801 368.839 371.991 370.883 367.084 374.037C365.683 374.937 363.842 376.189 362.482 377.157C361.223 378.05 359.585 379.303 358.354 380.237C358.32 380.264 355.125 382.693 351.741 385.908C350.956 386.653 349.928 387.675 349.19 388.473C348.506 389.211 347.633 390.24 347.004 391.018C347.004 391.018 347.004 391.018 347.004 391.012C347.505 390.193 347.911 389.468 348.344 388.602C348.777 387.749 349.285 386.585 349.677 385.712C350.219 384.507 350.814 382.842 351.247 381.59C352.398 378.267 353.569 373.712 354.171 370.247C354.773 366.781 355.389 362.544 355.531 359.208C355.741 354.368 355.585 347.905 355.342 343.066C355.139 339.066 354.137 333.786 353.399 329.847C352.892 327.133 351.958 323.56 351.18 320.913C349.86 316.426 347.606 310.598 345.867 306.26C344.946 303.972 343.383 301.069 342.32 298.842L342.334 298.849Z" stroke="white" stroke-opacity="0.15" stroke-width="2" stroke-miterlimit="10"/>
</g>
<mask id="mask6_23_909" style="mask-type:luminance" maskUnits="userSpaceOnUse" x="245" y="298" width="326" height="218">
<path d="M351.044 382.22C352.161 378.93 353.284 374.423 354.042 371.025C354.523 368.879 354.902 365.962 355.146 363.776C355.403 361.475 355.687 358.389 355.707 356.074C355.748 352.169 355.768 346.95 355.362 343.065C355.085 340.419 354.74 336.886 354.246 334.274C353.488 330.233 352.357 324.859 351.193 320.913C350.516 318.619 349.603 315.56 348.716 313.346C346.943 308.933 344.391 303.133 342.334 298.849C379.72 370.808 340.622 467.959 255 515.844C244.368 499.513 242.324 478.139 251.034 453.448C274.12 388 364.018 324.06 451.826 310.632C512.812 301.306 556.756 318.801 570.17 352.291C481.72 394.734 379.72 370.802 342.334 298.849C344.628 302.944 347.775 308.358 350.415 312.243C352.608 315.465 355.938 319.472 358.394 322.497C362.421 327.451 370.11 334.301 372.912 336.487C374.773 337.942 377.236 339.925 379.233 341.197C381.229 342.47 383.666 344.115 385.629 345.265C387.591 346.416 390.041 347.79 392.024 348.69C395.171 350.118 399.381 352.033 402.684 353.035C404.748 353.658 407.509 354.45 409.614 354.896C410.508 355.086 411.705 355.289 412.606 355.417C412.924 355.465 413.776 355.58 415.11 355.668C414.65 355.702 414.04 355.729 413.587 355.776C412.93 355.844 412.064 355.952 411.408 356.047C410.217 356.216 408.633 356.507 407.455 356.758C402.738 357.739 398.454 359.14 398.413 359.154C396.87 359.661 394.819 360.345 393.303 360.906C391.686 361.502 389.547 362.348 387.957 363.018C383.212 365.022 380.14 366.599 377.216 368.115C375.632 368.94 373.554 370.111 372.018 371.011C370.482 371.912 368.573 373.089 367.125 374.023C364.039 376.006 362.367 377.204 358.462 380.162C358.428 380.189 355.071 382.761 351.911 385.753C349.224 388.297 347.762 390.017 347.011 391.011C347.423 390.348 347.748 389.753 347.748 389.753C348.154 388.981 348.689 387.952 349.055 387.154C349.718 385.705 350.53 383.729 351.044 382.22Z" fill="white"/>
</mask>
<g mask="url(#mask6_23_909)">
<path d="M232.842 287.059C255.927 221.61 304.954 226.889 342.334 298.849C304.948 226.889 203.462 179.437 115.655 192.865C92.5692 258.314 145.034 300.487 232.842 287.059Z" stroke="white" stroke-opacity="0.15" stroke-width="2" stroke-miterlimit="10"/>
<path d="M116.264 249.36C203.74 204.73 304.954 226.889 342.334 298.849" stroke="white" stroke-opacity="0.15" stroke-width="2" stroke-miterlimit="10"/>
<path d="M115.655 192.865C203.462 179.437 304.948 226.889 342.334 298.849C304.948 226.889 293.361 115.505 316.446 50.0562C228.639 63.4843 138.74 127.424 115.655 192.872V192.865Z" stroke="white" stroke-opacity="0.15" stroke-width="2" stroke-miterlimit="10"/>
<path d="M158.462 129.738C222.629 151.18 304.955 226.889 342.334 298.849" stroke="white" stroke-opacity="0.15" stroke-width="2" stroke-miterlimit="10"/>
<path d="M230.5 78.503C254.885 128.243 304.955 226.889 342.341 298.849" stroke="white" stroke-opacity="0.15" stroke-width="2" stroke-miterlimit="10"/>
<path d="M316.446 50.0494C293.361 115.498 304.948 226.889 342.334 298.842C304.948 226.882 345.826 157.664 433.634 144.236C456.719 78.7872 404.254 36.6145 316.446 50.0427V50.0494Z" stroke="white" stroke-opacity="0.15" stroke-width="2" stroke-miterlimit="10"/>
<path d="M390.989 53.9615C326.734 117.251 304.955 226.889 342.341 298.849" stroke="white" stroke-opacity="0.15" stroke-width="2" stroke-miterlimit="10"/>
<path d="M433.024 87.7551C345.549 132.385 304.948 226.889 342.334 298.849" stroke="white" stroke-opacity="0.15" stroke-width="2" stroke-miterlimit="10"/>
<path d="M342.334 298.849C379.72 370.808 391.307 482.193 368.221 547.641C280.414 561.069 227.949 518.897 251.034 453.448C338.842 440.02 379.72 370.808 342.334 298.849Z" stroke="white" stroke-opacity="0.15" stroke-width="2" stroke-miterlimit="10"/>
<path d="M370.793 380.785C358.807 382.619 351.64 376.859 354.794 367.925" stroke="white" stroke-opacity="0.15" stroke-width="2" stroke-miterlimit="10"/>
<path d="M380.079 470.044C336.588 476.697 310.606 455.81 322.037 423.391" stroke="white" stroke-opacity="0.15" stroke-width="2" stroke-miterlimit="10"/>
<path d="M342.334 298.849C379.72 370.808 339.112 465.313 251.643 509.942" stroke="white" stroke-opacity="0.15" stroke-width="2" stroke-miterlimit="10"/>
<path d="M342.334 298.849C379.72 370.808 338.842 440.02 251.034 453.448C274.12 388 364.018 324.06 451.826 310.632C428.74 376.081 379.72 370.802 342.334 298.849Z" stroke="white" stroke-opacity="0.15" stroke-width="2" stroke-miterlimit="10"/>
<path d="M354.794 367.925C357.948 358.991 370.218 350.26 382.204 348.426" stroke="white" stroke-opacity="0.15" stroke-width="2" stroke-miterlimit="10"/>
<path d="M322.037 423.391C333.475 390.978 377.994 359.309 421.485 352.656" stroke="white" stroke-opacity="0.15" stroke-width="2" stroke-miterlimit="10"/>
<path d="M342.334 298.849C379.72 370.808 358.009 411.756 293.842 390.321" stroke="white" stroke-opacity="0.15" stroke-width="2" stroke-miterlimit="10"/>
<path d="M342.334 298.849C379.72 370.808 390.258 388.819 365.873 339.086" stroke="white" stroke-opacity="0.15" stroke-width="2" stroke-miterlimit="10"/>
<path d="M342.334 298.849C379.72 370.808 428.74 376.081 451.826 310.632C539.633 297.204 592.099 339.377 569.013 404.825C481.206 418.254 379.72 370.808 342.334 298.849Z" stroke="white" stroke-opacity="0.15" stroke-width="2" stroke-miterlimit="10"/>
<path d="M382.211 348.433C394.197 346.599 401.364 352.358 398.21 361.292" stroke="white" stroke-opacity="0.15" stroke-width="2" stroke-miterlimit="10"/>
<path d="M421.485 352.656C464.976 346.003 490.958 366.89 479.527 399.309" stroke="white" stroke-opacity="0.15" stroke-width="2" stroke-miterlimit="10"/>
<path d="M342.334 298.849C379.72 370.808 462.106 377.834 526.361 314.544" stroke="white" stroke-opacity="0.15" stroke-width="2" stroke-miterlimit="10"/>
<path d="M342.334 298.849C379.72 370.808 480.928 392.961 568.404 348.338" stroke="white" stroke-opacity="0.15" stroke-width="2" stroke-miterlimit="10"/>
<path d="M368.221 547.641C345.136 613.09 296.116 607.817 258.729 535.858C83.1077 562.714 -21.8227 478.369 24.355 347.472C61.7412 419.431 163.227 466.876 251.034 453.448C227.949 518.897 280.414 561.069 368.221 547.641Z" stroke="white" stroke-opacity="0.15" stroke-width="2" stroke-miterlimit="10"/>
<path d="M251.643 509.942C164.167 554.572 62.9526 532.42 25.5664 460.46" stroke="white" stroke-opacity="0.15" stroke-width="2" stroke-miterlimit="10"/>
<path d="M251.034 453.448C163.227 466.876 61.7344 419.431 24.355 347.472C70.526 216.574 250.33 88.6959 425.945 61.8397C463.331 133.799 474.918 245.184 451.826 310.632C364.018 324.06 274.12 388 251.034 453.448Z" stroke="white" stroke-opacity="0.15" stroke-width="2" stroke-miterlimit="10"/>
<path d="M293.841 390.321C229.674 368.879 147.349 293.17 109.963 221.211" stroke="white" stroke-opacity="0.15" stroke-width="2" stroke-miterlimit="10"/>
<path d="M365.873 339.086C341.488 289.346 291.418 190.7 254.032 118.74" stroke="white" stroke-opacity="0.15" stroke-width="2" stroke-miterlimit="10"/>
<path d="M451.826 310.632C474.911 245.184 463.324 133.792 425.945 61.8397C601.56 34.9834 706.497 119.329 660.319 250.226C697.706 322.186 656.827 391.397 569.013 404.825C592.098 339.377 539.633 297.204 451.826 310.632Z" stroke="white" stroke-opacity="0.15" stroke-width="2" stroke-miterlimit="10"/>
<path d="M526.368 314.544C590.623 251.255 612.409 141.617 575.023 69.6569" stroke="white" stroke-opacity="0.15" stroke-width="2" stroke-miterlimit="10"/>
<path d="M342.334 298.849C344.391 303.133 346.943 308.933 348.716 313.346C349.603 315.56 350.516 318.619 351.193 320.913C352.357 324.859 353.488 330.233 354.246 334.274C354.74 336.886 355.085 340.419 355.362 343.065C355.768 346.95 355.748 352.169 355.707 356.074C355.687 358.389 355.403 361.475 355.146 363.776C354.902 365.962 354.523 368.879 354.042 371.025C353.284 374.423 352.161 378.93 351.044 382.22C350.53 383.729 349.718 385.705 349.055 387.154C348.689 387.952 348.154 388.981 347.748 389.753C347.748 389.753 347.423 390.348 347.011 391.011C347.762 390.017 349.224 388.297 351.911 385.753C355.071 382.761 358.428 380.189 358.462 380.162C362.367 377.204 364.039 376.006 367.125 374.023C368.573 373.089 370.482 371.912 372.018 371.011C373.554 370.111 375.632 368.94 377.216 368.115C380.14 366.599 383.212 365.022 387.957 363.018C389.547 362.348 391.686 361.502 393.303 360.906C394.819 360.345 396.87 359.661 398.413 359.154C398.454 359.14 402.738 357.739 407.455 356.758C408.633 356.507 410.217 356.216 411.408 356.047C412.064 355.952 412.93 355.844 413.587 355.776C414.04 355.729 414.65 355.702 415.11 355.668C413.776 355.58 412.924 355.465 412.606 355.417C411.705 355.289 410.508 355.086 409.614 354.896C407.509 354.45 404.748 353.658 402.684 353.035C399.381 352.033 395.171 350.118 392.024 348.69C390.041 347.79 387.591 346.416 385.629 345.265C383.666 344.115 381.229 342.47 379.233 341.197C377.236 339.925 374.773 337.942 372.912 336.487C370.11 334.301 362.421 327.451 358.394 322.497C355.938 319.472 352.608 315.465 350.415 312.243C347.775 308.358 344.628 302.944 342.334 298.849ZM342.334 298.849C379.72 370.808 340.622 467.959 255 515.844C244.368 499.513 242.324 478.139 251.034 453.448C274.12 388 364.018 324.06 451.826 310.632C512.812 301.306 556.756 318.801 570.17 352.291C481.72 394.734 379.72 370.802 342.334 298.849Z" stroke="white" stroke-opacity="0.15" stroke-width="2" stroke-miterlimit="10"/>
</g>
<mask id="mask7_23_909" style="mask-type:luminance" maskUnits="userSpaceOnUse" x="255" y="298" width="315" height="253">
<path d="M255 515.844C340.622 467.959 379.72 370.808 342.334 298.849C379.72 370.808 481.206 418.254 569.013 404.825C545.928 470.274 456.029 534.213 368.221 547.641C313.536 556 272.563 542.802 255 515.844Z" fill="white"/>
</mask>
<g mask="url(#mask7_23_909)">
<path d="M433.633 144.243C345.826 157.671 304.948 226.889 342.334 298.849C304.948 226.889 255.927 221.61 232.842 287.059C320.649 273.63 410.548 209.691 433.633 144.243Z" stroke="white" stroke-opacity="0.15" stroke-width="2" stroke-miterlimit="10"/>
<path d="M390.826 207.376C326.659 185.935 304.948 226.889 342.334 298.849" stroke="white" stroke-opacity="0.15" stroke-width="2" stroke-miterlimit="10"/>
<path d="M318.795 258.612C294.41 208.872 304.954 226.889 342.334 298.849" stroke="white" stroke-opacity="0.15" stroke-width="2" stroke-miterlimit="10"/>
<path d="M232.842 287.059C255.927 221.61 304.954 226.889 342.334 298.849C304.948 226.889 203.462 179.437 115.655 192.865C92.5692 258.314 145.034 300.487 232.842 287.059Z" stroke="white" stroke-opacity="0.15" stroke-width="2" stroke-miterlimit="10"/>
<path d="M158.306 283.153C222.561 219.864 304.954 226.896 342.341 298.849" stroke="white" stroke-opacity="0.15" stroke-width="2" stroke-miterlimit="10"/>
<path d="M342.334 298.849C379.72 370.808 481.206 418.254 569.013 404.825C545.928 470.274 456.029 534.213 368.221 547.641C391.307 482.193 379.72 370.808 342.334 298.849Z" stroke="white" stroke-opacity="0.15" stroke-width="2" stroke-miterlimit="10"/>
<path d="M398.203 361.292C395.05 370.226 382.779 378.957 370.793 380.792" stroke="white" stroke-opacity="0.15" stroke-width="2" stroke-miterlimit="10"/>
<path d="M479.527 399.309C468.089 431.722 423.57 463.391 380.079 470.044" stroke="white" stroke-opacity="0.15" stroke-width="2" stroke-miterlimit="10"/>
<path d="M342.334 298.849C379.72 370.808 462.039 446.518 526.206 467.959" stroke="white" stroke-opacity="0.15" stroke-width="2" stroke-miterlimit="10"/>
<path d="M342.334 298.849C379.72 370.808 429.79 469.455 454.174 519.195" stroke="white" stroke-opacity="0.15" stroke-width="2" stroke-miterlimit="10"/>
<path d="M342.334 298.849C379.72 370.808 391.307 482.193 368.221 547.641C280.414 561.07 227.949 518.897 251.034 453.448C338.842 440.02 379.72 370.808 342.334 298.849Z" stroke="white" stroke-opacity="0.15" stroke-width="2" stroke-miterlimit="10"/>
<path d="M370.793 380.785C358.807 382.619 351.64 376.859 354.794 367.925" stroke="white" stroke-opacity="0.15" stroke-width="2" stroke-miterlimit="10"/>
<path d="M380.079 470.044C336.588 476.697 310.606 455.81 322.037 423.391" stroke="white" stroke-opacity="0.15" stroke-width="2" stroke-miterlimit="10"/>
<path d="M342.334 298.849C379.72 370.808 357.934 480.44 293.679 543.729" stroke="white" stroke-opacity="0.15" stroke-width="2" stroke-miterlimit="10"/>
<path d="M569.013 404.825C656.82 391.397 697.699 322.186 660.319 250.226C614.142 381.123 434.344 509.002 258.729 535.858C296.115 607.818 345.136 613.09 368.221 547.641C456.029 534.213 545.927 470.274 569.013 404.825Z" stroke="white" stroke-opacity="0.15" stroke-width="2" stroke-miterlimit="10"/>
<path d="M526.206 467.959C590.373 489.401 612.091 448.447 574.705 376.487" stroke="white" stroke-opacity="0.15" stroke-width="2" stroke-miterlimit="10"/>
<path d="M454.174 519.195C478.559 568.934 468.021 550.917 430.635 478.964" stroke="white" stroke-opacity="0.15" stroke-width="2" stroke-miterlimit="10"/>
<path d="M368.221 547.641C345.136 613.09 296.116 607.818 258.729 535.858C83.1077 562.714 -21.8227 478.369 24.355 347.472C61.7412 419.431 163.227 466.876 251.034 453.448C227.949 518.897 280.414 561.07 368.221 547.641Z" stroke="white" stroke-opacity="0.15" stroke-width="2" stroke-miterlimit="10"/>
<path d="M293.686 543.729C229.431 607.019 147.038 599.993 109.652 528.034" stroke="white" stroke-opacity="0.15" stroke-width="2" stroke-miterlimit="10"/>
<path d="M255 515.844C340.622 467.959 379.72 370.808 342.334 298.849C379.72 370.808 481.206 418.254 569.013 404.825C545.928 470.274 456.029 534.213 368.221 547.641C313.536 556 272.563 542.802 255 515.844Z" stroke="white" stroke-opacity="0.15" stroke-width="2" stroke-miterlimit="10"/>
</g>
<mask id="mask8_23_909" style="mask-type:luminance" maskUnits="userSpaceOnUse" x="342" y="298" width="233" height="110">
<path d="M342.334 298.849C379.72 370.808 481.72 394.734 570.17 352.291C576.072 367.018 576.065 384.832 569.013 404.825C481.206 418.254 379.72 370.808 342.334 298.849Z" fill="white"/>
</mask>
<g mask="url(#mask8_23_909)">
<path d="M316.446 50.0494C293.361 115.498 304.948 226.889 342.334 298.842C304.948 226.882 345.826 157.664 433.634 144.236C456.719 78.7873 404.254 36.6145 316.446 50.0427V50.0494Z" stroke="white" stroke-opacity="0.15" stroke-width="2" stroke-miterlimit="10"/>
<path d="M342.334 298.849C379.72 370.808 428.74 376.081 451.826 310.632C539.633 297.204 592.099 339.377 569.013 404.825C481.206 418.254 379.72 370.808 342.334 298.849Z" stroke="white" stroke-opacity="0.15" stroke-width="2" stroke-miterlimit="10"/>
<path d="M382.211 348.433C394.197 346.599 401.364 352.358 398.21 361.292" stroke="white" stroke-opacity="0.15" stroke-width="2" stroke-miterlimit="10"/>
<path d="M421.485 352.656C464.976 346.003 490.958 366.89 479.527 399.309" stroke="white" stroke-opacity="0.15" stroke-width="2" stroke-miterlimit="10"/>
<path d="M451.826 310.632C474.911 245.184 463.325 133.792 425.945 61.8397C601.56 34.9834 706.497 119.329 660.32 250.226C697.706 322.186 656.827 391.397 569.013 404.825C592.099 339.377 539.633 297.204 451.826 310.632Z" stroke="white" stroke-opacity="0.15" stroke-width="2" stroke-miterlimit="10"/>
<path d="M342.334 298.849C379.72 370.808 481.72 394.734 570.17 352.291C576.072 367.018 576.065 384.832 569.013 404.825C481.206 418.254 379.72 370.808 342.334 298.849Z" stroke="white" stroke-opacity="0.15" stroke-width="2" stroke-miterlimit="10"/>
</g>
<mask id="mask9_23_909" style="mask-type:luminance" maskUnits="userSpaceOnUse" x="0" y="0" width="685" height="598">
<path d="M669.03 333.597C666.756 339.397 664.002 347.248 661.437 352.934C657.687 361.252 652.354 372.189 648.009 380.21C645.024 385.726 640.727 392.913 637.309 398.179C633.025 404.792 627.096 413.482 622.352 419.783C618.562 424.812 613.371 431.418 609.303 436.23C604.701 441.678 598.488 448.9 593.466 453.969C584.573 462.964 572.343 474.585 562.97 483.086C557.982 487.614 550.99 493.279 545.637 497.36C540.453 501.313 533.61 506.701 528.216 510.362C517.645 517.543 503.466 527.032 492.447 533.503C486.871 536.772 479.345 540.968 473.633 543.993C467.934 547.012 460.185 550.741 454.425 553.631C448.666 556.521 440.652 559.845 434.724 562.45C428.741 565.083 420.592 568.19 414.46 570.45C408.329 572.711 400.024 575.398 393.832 577.516C387.639 579.635 379.084 581.821 372.763 583.635C366.442 585.449 357.406 587.459 350.774 588.853C344.229 590.227 335.438 591.736 328.846 592.873C321.902 594.071 312.555 595.168 305.537 595.838C298.194 596.542 288.373 597.219 280.996 597.449C274.682 597.645 266.242 597.74 259.928 597.523C252.104 597.252 241.654 596.812 233.885 595.838C227.868 595.08 219.827 594.207 213.865 593.104C205.358 591.533 194.028 589.273 185.697 586.944C180.079 585.374 172.567 583.276 167.105 581.232C157.867 577.787 145.644 572.9 136.737 568.67C126.518 563.818 113.699 555.77 104.143 549.733C99.3579 546.707 93.5307 541.855 88.9826 538.477C84.4345 535.1 78.9999 530.098 74.9323 526.274C70.8648 522.45 65.7212 517.049 61.8499 513.015C56.8754 507.824 50.9602 500.244 46.6084 494.518C43.2177 490.051 39.0892 483.797 36.064 479.073C33.0387 474.349 29.2825 467.668 26.6633 462.626C24.0441 457.584 20.8496 450.775 18.65 445.57C12.9785 432.128 8.2003 417.279 4.97875 401.577C3.28676 393.347 1.81812 382.226 0.938283 373.868C0.335935 368.203 0.132896 360.595 0.0381444 354.896C-0.110751 345.766 0.796155 333.59 1.62185 324.494C2.15651 318.605 3.56425 310.835 4.56591 305.008C5.56756 299.18 7.42198 291.39 8.97861 285.637C10.7451 279.099 13.4184 270.47 15.6451 264.081C17.6957 258.199 20.6736 250.429 23.2387 244.744C26.9881 236.426 32.3213 225.488 36.6663 217.468C39.651 211.952 43.9486 204.764 47.3597 199.498C51.6438 192.886 57.5725 184.195 62.3169 177.894C66.1069 172.865 71.298 166.26 75.3655 161.447C79.9677 155.999 86.1807 148.777 91.2025 143.708C100.096 134.713 112.325 123.092 121.699 114.591C126.687 110.063 133.814 104.574 139.032 100.317C143.965 96.2899 150.842 91.3085 156.026 87.613C161.21 83.9176 168.486 78.8008 174.049 75.3693C179.612 71.9378 186.705 67.2407 192.329 64.107C197.953 60.9733 205.351 56.6891 211.029 53.684C216.707 50.6789 224.403 46.7872 230.237 44.0461C241.986 38.53 258.033 32.019 270.1 27.2609C276.211 24.8514 284.604 22.2727 290.823 20.161C297.043 18.0494 305.875 15.6263 312.386 13.9072C318.897 12.1881 327.377 10.0832 333.881 8.81753C340.866 7.46389 350.151 5.47403 357.203 4.58063C370.218 2.92919 387.632 1.21006 400.721 0.330196C407.902 -0.150347 417.519 -0.00821472 424.721 0.147454C430.961 0.289586 439.265 0.878421 445.485 1.32512C453.112 1.88012 463.223 3.34882 470.776 4.56709C476.719 5.52141 484.59 7.13225 490.431 8.56034C498.654 10.5773 509.496 13.7922 517.543 16.4318C523.073 18.2456 530.28 21.1424 535.647 23.3963C544.588 27.1526 556.046 33.2102 564.553 37.8599C569.521 40.574 575.754 44.8515 580.505 47.931C585.256 51.0105 591.253 55.64 595.666 59.1865C600.078 62.7331 605.743 67.4641 609.716 71.3896C613.689 75.3152 619.076 80.4793 622.798 84.6486C627.583 90.0157 633.925 97.251 638.04 103.146C644.476 112.378 652.354 125.177 657.938 134.95C660.76 139.884 663.758 146.875 665.998 152.101C668.238 157.326 670.973 164.263 672.59 169.644C675.331 178.767 678.688 191.038 680.515 200.392C682.133 208.676 683.324 219.898 684.062 228.304C684.556 233.989 684.522 241.624 684.617 247.329C684.772 256.575 683.446 268.879 682.438 278.07C681.795 283.966 680.17 291.722 679.121 297.556C677.125 308.602 672.428 322.89 669.017 333.583C656.347 369.495 620.856 396.886 569.007 404.812C576.059 384.825 576.059 367.005 570.164 352.277C556.75 318.788 512.812 301.292 451.819 310.619C364.012 324.047 274.113 387.986 251.028 453.435C242.317 478.125 244.361 499.499 254.994 515.831C272.55 542.789 313.53 555.993 368.215 547.628C456.022 534.2 545.921 470.261 569.007 404.812C620.863 396.88 656.347 369.495 669.017 333.583L669.03 333.597Z" fill="white"/>
</mask>
<g mask="url(#mask9_23_909)">
<path d="M342.334 298.849C379.72 370.808 481.206 418.254 569.013 404.825C545.928 470.274 456.029 534.213 368.221 547.641C391.307 482.193 379.72 370.808 342.334 298.849Z" stroke="white" stroke-opacity="0.15" stroke-width="2" stroke-miterlimit="10"/>
<path d="M342.334 298.849C379.72 370.808 462.039 446.518 526.206 467.959" stroke="white" stroke-opacity="0.15" stroke-width="2" stroke-miterlimit="10"/>
<path d="M342.334 298.849C379.72 370.808 429.79 469.455 454.174 519.195" stroke="white" stroke-opacity="0.15" stroke-width="2" stroke-miterlimit="10"/>
<path d="M342.334 298.849C379.72 370.808 391.307 482.193 368.221 547.641C280.414 561.07 227.949 518.897 251.034 453.448C338.842 440.02 379.72 370.808 342.334 298.849Z" stroke="white" stroke-opacity="0.15" stroke-width="2" stroke-miterlimit="10"/>
<path d="M342.334 298.849C379.72 370.808 357.934 480.44 293.679 543.729" stroke="white" stroke-opacity="0.15" stroke-width="2" stroke-miterlimit="10"/>
<path d="M342.334 298.849C379.72 370.808 339.112 465.313 251.643 509.942" stroke="white" stroke-opacity="0.15" stroke-width="2" stroke-miterlimit="10"/>
<path d="M342.334 298.849C379.72 370.808 338.842 440.02 251.034 453.448C274.12 388 364.018 324.06 451.826 310.632C428.74 376.081 379.72 370.802 342.334 298.849Z" stroke="white" stroke-opacity="0.15" stroke-width="2" stroke-miterlimit="10"/>
<path d="M342.334 298.849C379.72 370.808 358.009 411.756 293.842 390.321" stroke="white" stroke-opacity="0.15" stroke-width="2" stroke-miterlimit="10"/>
<path d="M342.334 298.849C379.72 370.808 390.258 388.819 365.873 339.086" stroke="white" stroke-opacity="0.15" stroke-width="2" stroke-miterlimit="10"/>
<path d="M342.334 298.849C379.72 370.808 428.74 376.081 451.826 310.632C539.633 297.204 592.099 339.377 569.013 404.825C481.206 418.254 379.72 370.808 342.334 298.849Z" stroke="white" stroke-opacity="0.15" stroke-width="2" stroke-miterlimit="10"/>
<path d="M342.334 298.849C379.72 370.808 462.106 377.834 526.361 314.544" stroke="white" stroke-opacity="0.15" stroke-width="2" stroke-miterlimit="10"/>
<path d="M342.334 298.849C379.72 370.808 480.928 392.961 568.404 348.338" stroke="white" stroke-opacity="0.15" stroke-width="2" stroke-miterlimit="10"/>
<path d="M569.013 404.825C656.821 391.397 697.699 322.186 660.32 250.226C614.142 381.123 434.344 509.002 258.729 535.858C296.116 607.818 345.136 613.09 368.221 547.641C456.029 534.213 545.928 470.274 569.013 404.825Z" stroke="white" stroke-opacity="0.15" stroke-width="2" stroke-miterlimit="10"/>
<path d="M640.022 374.768C605.283 473.252 470.011 569.462 337.881 589.665" stroke="white" stroke-opacity="0.15" stroke-width="2" stroke-miterlimit="10"/>
<path d="M672.78 319.302C629.756 441.265 462.228 560.413 298.6 585.435" stroke="white" stroke-opacity="0.15" stroke-width="2" stroke-miterlimit="10"/>
<path d="M526.206 467.959C590.373 489.401 612.091 448.447 574.705 376.487" stroke="white" stroke-opacity="0.15" stroke-width="2" stroke-miterlimit="10"/>
<path d="M454.174 519.195C478.559 568.934 468.022 550.917 430.635 478.964" stroke="white" stroke-opacity="0.15" stroke-width="2" stroke-miterlimit="10"/>
<path d="M368.221 547.641C345.136 613.09 296.116 607.818 258.729 535.858C83.1077 562.714 -21.8227 478.369 24.355 347.472C61.7412 419.431 163.227 466.876 251.034 453.448C227.949 518.897 280.414 561.07 368.221 547.641Z" stroke="white" stroke-opacity="0.15" stroke-width="2" stroke-miterlimit="10"/>
<path d="M337.881 589.665C205.757 609.868 126.808 546.41 161.548 447.932" stroke="white" stroke-opacity="0.15" stroke-width="2" stroke-miterlimit="10"/>
<path d="M298.599 585.442C134.971 610.464 37.2007 531.878 80.2246 409.915" stroke="white" stroke-opacity="0.15" stroke-width="2" stroke-miterlimit="10"/>
<path d="M293.686 543.729C229.431 607.019 147.038 599.993 109.652 528.034" stroke="white" stroke-opacity="0.15" stroke-width="2" stroke-miterlimit="10"/>
<path d="M251.643 509.942C164.167 554.572 62.9526 532.42 25.5664 460.46" stroke="white" stroke-opacity="0.15" stroke-width="2" stroke-miterlimit="10"/>
<path d="M251.034 453.448C163.227 466.876 61.7344 419.431 24.355 347.472C70.526 216.574 250.33 88.6959 425.945 61.8397C463.331 133.799 474.918 245.184 451.826 310.632C364.018 324.06 274.12 388 251.034 453.448Z" stroke="white" stroke-opacity="0.15" stroke-width="2" stroke-miterlimit="10"/>
<path d="M161.548 447.932C196.288 349.448 331.559 253.238 463.69 233.035" stroke="white" stroke-opacity="0.15" stroke-width="2" stroke-miterlimit="10"/>
<path d="M80.2244 409.915C123.248 287.952 290.775 168.804 454.404 143.782" stroke="white" stroke-opacity="0.15" stroke-width="2" stroke-miterlimit="10"/>
<path d="M293.841 390.321C229.674 368.879 147.349 293.17 109.963 221.211" stroke="white" stroke-opacity="0.15" stroke-width="2" stroke-miterlimit="10"/>
<path d="M365.873 339.086C341.488 289.346 291.418 190.7 254.032 118.74" stroke="white" stroke-opacity="0.15" stroke-width="2" stroke-miterlimit="10"/>
<path d="M451.826 310.632C474.911 245.184 463.325 133.792 425.945 61.8397C601.56 34.9834 706.497 119.329 660.32 250.226C697.706 322.186 656.827 391.397 569.013 404.825C592.099 339.377 539.633 297.204 451.826 310.632Z" stroke="white" stroke-opacity="0.15" stroke-width="2" stroke-miterlimit="10"/>
<path d="M463.69 233.035C595.814 212.832 674.762 276.29 640.022 374.768" stroke="white" stroke-opacity="0.15" stroke-width="2" stroke-miterlimit="10"/>
<path d="M454.405 143.782C618.033 118.76 715.803 197.346 672.779 319.309" stroke="white" stroke-opacity="0.15" stroke-width="2" stroke-miterlimit="10"/>
<path d="M526.368 314.544C590.623 251.255 612.409 141.617 575.023 69.657" stroke="white" stroke-opacity="0.15" stroke-width="2" stroke-miterlimit="10"/>
<path d="M660.32 250.226C622.933 178.266 521.448 130.821 433.634 144.243C410.548 209.691 320.649 273.63 232.842 287.059C209.757 352.507 221.343 463.898 258.729 535.858C434.344 509.002 614.149 381.123 660.32 250.226Z" stroke="white" stroke-opacity="0.15" stroke-width="2" stroke-miterlimit="10"/>
<path d="M604.45 187.783C561.426 309.746 393.899 428.893 230.27 453.915" stroke="white" stroke-opacity="0.15" stroke-width="2" stroke-miterlimit="10"/>
<path d="M574.705 376.487C537.319 304.527 454.993 228.811 390.826 207.376" stroke="white" stroke-opacity="0.15" stroke-width="2" stroke-miterlimit="10"/>
<path d="M430.636 478.958C393.249 406.998 343.18 308.345 318.795 258.612" stroke="white" stroke-opacity="0.15" stroke-width="2" stroke-miterlimit="10"/>
<path d="M258.729 535.858C221.343 463.898 209.757 352.507 232.842 287.059C145.035 300.487 92.5693 258.314 115.655 192.865C27.8474 206.294 -13.0311 275.512 24.3551 347.472C-21.8226 478.369 83.1145 562.714 258.729 535.858Z" stroke="white" stroke-opacity="0.15" stroke-width="2" stroke-miterlimit="10"/>
<path d="M230.27 453.915C66.6413 478.937 -31.1286 400.352 11.8953 278.388" stroke="white" stroke-opacity="0.15" stroke-width="2" stroke-miterlimit="10"/>
<path d="M109.652 528.041C72.2655 456.081 94.0516 346.443 158.307 283.153" stroke="white" stroke-opacity="0.15" stroke-width="2" stroke-miterlimit="10"/>
<path d="M25.5666 460.453C-11.8195 388.494 28.7882 293.982 116.264 249.353" stroke="white" stroke-opacity="0.15" stroke-width="2" stroke-miterlimit="10"/>
<path d="M24.3551 347.472C-13.0311 275.512 27.8474 206.294 115.655 192.865C138.74 127.417 228.639 63.4776 316.447 50.0495C339.532 -15.3991 388.559 -10.1199 425.939 61.8329C250.33 88.6959 70.5261 216.574 24.3551 347.472Z" stroke="white" stroke-opacity="0.15" stroke-width="2" stroke-miterlimit="10"/>
<path d="M11.8953 278.389C54.9192 156.432 222.446 37.2778 386.075 12.2558" stroke="white" stroke-opacity="0.15" stroke-width="2" stroke-miterlimit="10"/>
<path d="M109.963 221.211C72.5769 149.251 94.2885 108.297 158.462 129.738" stroke="white" stroke-opacity="0.15" stroke-width="2" stroke-miterlimit="10"/>
<path d="M254.039 118.74C216.653 46.7804 206.115 28.7634 230.5 78.503" stroke="white" stroke-opacity="0.15" stroke-width="2" stroke-miterlimit="10"/>
<path d="M425.945 61.8397C388.559 -10.1199 339.539 -15.3991 316.453 50.0562C404.261 36.6281 456.726 78.8008 433.641 144.249C521.448 130.821 622.94 178.273 660.326 250.233C706.504 119.336 601.567 34.9902 425.952 61.8464L425.945 61.8397Z" stroke="white" stroke-opacity="0.15" stroke-width="2" stroke-miterlimit="10"/>
<path d="M386.075 12.2558C549.704 -12.7663 647.474 65.8194 604.45 187.782" stroke="white" stroke-opacity="0.15" stroke-width="2" stroke-miterlimit="10"/>
<path d="M575.023 69.657C537.637 -2.30263 455.244 -9.32804 390.989 53.9615" stroke="white" stroke-opacity="0.15" stroke-width="2" stroke-miterlimit="10"/>
<path d="M659.101 137.238C621.715 65.2779 520.5 43.1256 433.025 87.7484" stroke="white" stroke-opacity="0.15" stroke-width="2" stroke-miterlimit="10"/>
<path d="M669.017 333.583C672.428 322.89 677.125 308.602 679.121 297.556C680.17 291.722 681.795 283.966 682.438 278.07C683.446 268.879 684.772 256.575 684.617 247.329C684.522 241.624 684.556 233.989 684.062 228.304C683.324 219.898 682.133 208.676 680.515 200.392C678.688 191.038 675.331 178.767 672.59 169.644C670.973 164.263 668.238 157.326 665.998 152.101C663.758 146.875 660.76 139.884 657.938 134.95C652.354 125.177 644.476 112.378 638.04 103.146C633.925 97.251 627.583 90.0157 622.798 84.6485C619.076 80.4793 613.689 75.3152 609.716 71.3896C605.743 67.4641 600.078 62.7331 595.666 59.1865C591.253 55.64 585.256 51.0105 580.505 47.931C575.754 44.8515 569.521 40.574 564.553 37.8599C556.046 33.2102 544.588 27.1526 535.647 23.3963C530.28 21.1424 523.072 18.2456 517.543 16.4318C509.496 13.7922 498.654 10.5773 490.431 8.56034C484.59 7.13225 476.719 5.52141 470.776 4.56709C463.223 3.34882 453.112 1.88012 445.485 1.32512C439.265 0.878421 430.961 0.289586 424.721 0.147454C417.519 -0.00821472 407.902 -0.150347 400.721 0.330196C387.632 1.21006 370.218 2.92919 357.203 4.58063C350.151 5.47403 340.866 7.46389 333.881 8.81753C327.377 10.0832 318.897 12.1881 312.386 13.9072C305.875 15.6263 297.043 18.0494 290.823 20.161C284.604 22.2727 276.211 24.8514 270.1 27.2609C258.033 32.019 241.986 38.53 230.237 44.0461C224.403 46.7872 216.707 50.6789 211.029 53.684C205.351 56.6891 197.953 60.9733 192.329 64.107C186.705 67.2407 179.612 71.9378 174.049 75.3693C168.486 78.8008 161.21 83.9176 156.026 87.613C150.842 91.3085 143.965 96.2899 139.032 100.317C133.814 104.574 126.687 110.063 121.699 114.591C112.325 123.092 100.096 134.713 91.2025 143.708C86.1807 148.777 79.9677 155.999 75.3655 161.447C71.2979 166.26 66.1069 172.865 62.3169 177.894C57.5725 184.195 51.6438 192.886 47.3597 199.498C43.9486 204.764 39.651 211.952 36.6663 217.468C32.3213 225.488 26.9881 236.426 23.2387 244.744C20.6736 250.429 17.6957 258.199 15.645 264.081C13.4184 270.47 10.7451 279.099 8.97861 285.637C7.42198 291.39 5.56756 299.18 4.56591 305.008C3.56425 310.835 2.15651 318.605 1.62185 324.494C0.796155 333.59 -0.110751 345.766 0.0381444 354.896C0.132896 360.595 0.335935 368.203 0.938283 373.868C1.81812 382.226 3.28676 393.347 4.97875 401.577C8.2003 417.279 12.9785 432.128 18.65 445.57C20.8496 450.775 24.0441 457.584 26.6633 462.626C29.2825 467.668 33.0387 474.349 36.064 479.073C39.0892 483.797 43.2177 490.051 46.6084 494.518C50.9602 500.244 56.8754 507.824 61.8499 513.015C65.7212 517.049 70.8648 522.45 74.9323 526.274C78.9999 530.098 84.4345 535.1 88.9826 538.477C93.5307 541.855 99.3579 546.707 104.143 549.733C113.699 555.77 126.518 563.817 136.737 568.67C145.644 572.9 157.867 577.787 167.105 581.232C172.567 583.276 180.079 585.374 185.697 586.944C194.028 589.273 205.358 591.533 213.865 593.104C219.827 594.207 227.868 595.08 233.885 595.838C241.654 596.813 252.104 597.252 259.928 597.523C266.242 597.74 274.682 597.645 280.996 597.449C288.373 597.219 298.194 596.542 305.537 595.838C312.555 595.168 321.902 594.071 328.846 592.873C335.438 591.736 344.229 590.227 350.774 588.853C357.406 587.459 366.442 585.449 372.763 583.635C379.084 581.821 387.639 579.635 393.832 577.516C400.024 575.398 408.329 572.711 414.46 570.45C420.592 568.19 428.741 565.083 434.724 562.45C440.652 559.845 448.666 556.521 454.425 553.631C460.185 550.741 467.934 547.012 473.633 543.993C479.345 540.968 486.871 536.772 492.447 533.503C503.466 527.032 517.645 517.543 528.216 510.362C533.61 506.701 540.453 501.313 545.637 497.36C550.99 493.279 557.982 487.614 562.97 483.086C572.343 474.585 584.573 462.964 593.466 453.969C598.488 448.9 604.701 441.678 609.303 436.23C613.371 431.418 618.562 424.812 622.352 419.783C627.096 413.482 633.025 404.792 637.309 398.179C640.727 392.913 645.024 385.726 648.009 380.209C652.354 372.189 657.687 361.252 661.437 352.934C664.002 347.248 666.756 339.397 669.03 333.597L669.017 333.583ZM669.017 333.583C656.347 369.495 620.856 396.886 569.007 404.812M669.017 333.583C656.347 369.495 620.863 396.88 569.007 404.812M569.007 404.812C576.059 384.825 576.059 367.005 570.164 352.277C556.75 318.788 512.812 301.292 451.819 310.619C364.012 324.047 274.113 387.986 251.028 453.435C242.317 478.125 244.361 499.499 254.994 515.831C272.55 542.789 313.53 555.993 368.215 547.628C456.022 534.2 545.921 470.261 569.007 404.812Z" stroke="white" stroke-opacity="0.15" stroke-width="2" stroke-miterlimit="10"/>
</g>
<mask id="mask10_23_909" style="mask-type:luminance" maskUnits="userSpaceOnUse" x="0" y="0" width="685" height="598">
<path d="M327.451 593.103C320.027 594.322 310.051 595.432 302.565 596.136C296.115 596.738 287.48 597.273 281.003 597.462C273.077 597.692 262.492 597.625 254.56 597.354C248.347 597.144 240.077 596.447 233.891 595.851C225.214 595.019 213.736 593.097 205.161 591.513C199.266 590.423 191.53 588.372 185.703 586.958C176.093 584.623 163.646 580.129 154.435 576.528C143.667 572.311 129.529 565.428 120.054 559.79C115.188 556.894 108.738 552.961 104.102 549.712C98.1866 545.564 90.505 539.75 84.9282 535.161C76.3126 528.068 65.6937 517.543 58.3707 509.13C47.2239 496.338 40.6252 486.22 36.023 479.012C32.9774 474.247 29.1873 467.716 26.6764 462.646C23.0082 455.249 18.6564 445.123 15.4348 437.523C12.2133 429.922 8.90376 418.978 7.07641 410.768C5.85818 405.286 4.0782 397.996 3.28635 392.433C2.02075 383.506 0.795746 371.533 0.227238 362.531C-0.490165 351.14 0.633315 335.884 1.62144 324.514C3.3405 304.839 10.9341 274.517 19.0828 254.835C23.8203 243.39 30.5883 228.277 36.6591 217.481C40.5304 210.591 46.0125 201.59 50.3101 194.957C53.7144 189.711 58.6279 182.964 62.3097 177.908C66.5126 172.141 72.5428 164.777 77.1518 159.342C81.4765 154.239 87.3782 147.539 92.0887 142.781C100.989 133.792 113.286 122.232 122.673 113.752C127.499 109.393 134.348 104.06 139.431 100.006C144.513 95.9514 151.254 91.0106 156.445 87.322C161.636 83.6333 168.688 78.679 174.157 75.3084C179.625 71.9378 186.806 67.3558 192.329 64.1138C197.852 60.8718 205.418 56.8177 211.029 53.6907C216.639 50.5638 224.429 46.8549 230.236 44.0528C236.097 41.2237 244.036 37.7178 250.032 35.1932C256.029 32.6687 264.15 29.6162 270.201 27.2338C276.252 24.8514 284.975 22.1577 291.31 20.0121C297.645 17.8666 306.965 15.3285 313.732 13.562C320.148 11.8903 328.784 9.95459 335.261 8.54003C342.693 6.91566 352.702 5.26422 360.222 4.1407C366.759 3.16607 375.51 2.13054 382.096 1.56201C388.681 0.993479 397.181 0.397877 403.658 0.23544C411.59 0.0323939 422.175 -0.062361 430.101 0.343731C436.307 0.661837 444.598 1.11531 450.77 1.84627C459.426 2.86827 470.966 4.40466 479.5 6.1847C485.368 7.40297 493.212 9.04088 498.958 10.7397C508.44 13.5417 520.94 17.7651 530.226 21.1695C535.674 23.1661 542.699 26.469 547.917 29.0071C553.02 31.491 559.734 35.0037 564.607 37.9073C569.48 40.8109 575.923 44.7364 580.559 47.9851C586.474 52.1341 594.176 57.9209 599.733 62.5368C608.315 69.6637 618.636 80.4522 626.29 88.5673C630.148 92.6553 634.527 98.7738 638.046 103.16C641.579 107.559 645.653 113.907 648.638 118.686C651.636 123.478 655.223 130.117 657.984 135.051C662.661 143.403 667.805 155.187 670.749 164.297C672.468 169.63 674.986 176.683 676.339 182.124C678.383 190.327 680.84 201.353 682.072 209.711C683.398 218.727 684.528 230.876 684.576 239.986C684.637 251.431 683.635 266.693 682.437 278.077C681.273 289.143 677.645 303.614 675.033 314.429C673.618 320.284 669.016 327.566 669.016 333.59C677.801 308.69 675.615 279.681 660.306 250.219C622.92 178.26 521.434 130.814 433.62 144.236C440.672 124.249 440.672 106.429 434.777 91.701C421.363 58.2119 377.426 40.7161 316.433 50.0427C228.625 63.4708 138.727 127.41 115.641 192.859C106.931 217.549 108.975 238.923 119.607 255.255C137.163 282.213 178.143 295.417 232.828 287.052C320.636 273.624 410.535 209.684 433.62 144.236C521.427 130.808 622.92 178.26 660.306 250.219C675.615 279.681 677.801 308.69 669.016 333.59C665.822 342.192 661.152 353.509 657.382 361.874C654.844 367.505 650.966 374.781 648.002 380.203C644.212 387.133 638.676 396.115 634.351 402.727C630.473 408.656 624.95 416.331 620.68 421.99C616.883 427.018 611.597 433.55 607.509 438.342C603.164 443.431 597.296 450.166 592.572 454.903C583.638 463.864 571.375 475.452 561.988 483.932C557.162 488.291 550.408 493.739 545.23 497.678C540.053 501.618 533.414 506.843 528.114 510.437C522.835 514.017 515.871 518.91 510.511 522.376C505.151 525.841 497.861 530.328 492.339 533.57C481.239 540.074 465.93 547.865 454.425 553.631C448.611 556.548 440.591 559.878 434.628 562.491C428.531 565.164 420.233 568.332 413.986 570.626C407.739 572.921 399.537 575.56 393.344 577.672C387.111 579.797 378.597 581.963 372.262 583.77C365.487 585.706 356.289 587.709 349.393 589.144C342.841 590.504 334.043 592.007 327.444 593.097L327.451 593.103Z" fill="white"/>
</mask>
<g mask="url(#mask10_23_909)">
<path d="M569.013 404.825C656.821 391.397 697.699 322.186 660.32 250.226C614.142 381.123 434.344 509.002 258.729 535.858C296.116 607.818 345.136 613.09 368.221 547.641C456.029 534.213 545.928 470.274 569.013 404.825Z" stroke="white" stroke-opacity="0.15" stroke-width="2" stroke-miterlimit="10"/>
<path d="M672.78 319.302C629.756 441.265 462.228 560.413 298.6 585.435" stroke="white" stroke-opacity="0.15" stroke-width="2" stroke-miterlimit="10"/>
<path d="M526.206 467.959C590.373 489.401 612.091 448.447 574.705 376.487" stroke="white" stroke-opacity="0.15" stroke-width="2" stroke-miterlimit="10"/>
<path d="M454.174 519.195C478.559 568.934 468.022 550.917 430.635 478.964" stroke="white" stroke-opacity="0.15" stroke-width="2" stroke-miterlimit="10"/>
<path d="M368.221 547.641C345.136 613.09 296.116 607.818 258.729 535.858C83.1077 562.714 -21.8227 478.369 24.355 347.472C61.7412 419.431 163.227 466.876 251.034 453.448C227.949 518.897 280.414 561.07 368.221 547.641Z" stroke="white" stroke-opacity="0.15" stroke-width="2" stroke-miterlimit="10"/>
<path d="M298.599 585.442C134.971 610.464 37.2007 531.878 80.2246 409.915" stroke="white" stroke-opacity="0.15" stroke-width="2" stroke-miterlimit="10"/>
<path d="M293.686 543.729C229.431 607.019 147.038 599.993 109.652 528.034" stroke="white" stroke-opacity="0.15" stroke-width="2" stroke-miterlimit="10"/>
<path d="M251.643 509.942C164.167 554.572 62.9526 532.42 25.5664 460.46" stroke="white" stroke-opacity="0.15" stroke-width="2" stroke-miterlimit="10"/>
<path d="M251.034 453.448C163.227 466.876 61.7344 419.431 24.355 347.472C70.526 216.574 250.33 88.6959 425.945 61.8397C463.331 133.799 474.918 245.184 451.826 310.632C364.018 324.06 274.12 388 251.034 453.448Z" stroke="white" stroke-opacity="0.15" stroke-width="2" stroke-miterlimit="10"/>
<path d="M80.2244 409.915C123.248 287.952 290.775 168.804 454.404 143.782" stroke="white" stroke-opacity="0.15" stroke-width="2" stroke-miterlimit="10"/>
<path d="M293.841 390.321C229.674 368.879 147.349 293.17 109.963 221.211" stroke="white" stroke-opacity="0.15" stroke-width="2" stroke-miterlimit="10"/>
<path d="M365.873 339.086C341.488 289.346 291.418 190.7 254.032 118.74" stroke="white" stroke-opacity="0.15" stroke-width="2" stroke-miterlimit="10"/>
<path d="M451.826 310.632C474.911 245.184 463.325 133.792 425.945 61.8397C601.56 34.9834 706.497 119.329 660.32 250.226C697.706 322.186 656.827 391.397 569.013 404.825C592.099 339.377 539.633 297.204 451.826 310.632Z" stroke="white" stroke-opacity="0.15" stroke-width="2" stroke-miterlimit="10"/>
<path d="M454.405 143.782C618.033 118.76 715.803 197.346 672.779 319.309" stroke="white" stroke-opacity="0.15" stroke-width="2" stroke-miterlimit="10"/>
<path d="M526.368 314.544C590.623 251.255 612.409 141.617 575.023 69.657" stroke="white" stroke-opacity="0.15" stroke-width="2" stroke-miterlimit="10"/>
<path d="M660.32 250.226C622.933 178.266 521.448 130.821 433.634 144.243C410.548 209.691 320.649 273.63 232.842 287.059C209.757 352.507 221.343 463.898 258.729 535.858C434.344 509.002 614.149 381.123 660.32 250.226Z" stroke="white" stroke-opacity="0.15" stroke-width="2" stroke-miterlimit="10"/>
<path d="M604.45 187.782C561.426 309.746 393.899 428.893 230.27 453.915" stroke="white" stroke-opacity="0.15" stroke-width="2" stroke-miterlimit="10"/>
<path d="M523.126 149.765C488.387 248.25 353.115 344.46 220.985 364.663" stroke="white" stroke-opacity="0.15" stroke-width="2" stroke-miterlimit="10"/>
<path d="M574.705 376.487C537.319 304.527 454.993 228.811 390.826 207.376" stroke="white" stroke-opacity="0.15" stroke-width="2" stroke-miterlimit="10"/>
<path d="M430.636 478.958C393.249 406.998 343.18 308.345 318.795 258.612" stroke="white" stroke-opacity="0.15" stroke-width="2" stroke-miterlimit="10"/>
<path d="M258.729 535.858C221.343 463.898 209.757 352.507 232.842 287.059C145.035 300.487 92.5693 258.314 115.655 192.865C27.8474 206.294 -13.0311 275.512 24.3551 347.472C-21.8226 478.369 83.1145 562.714 258.729 535.858Z" stroke="white" stroke-opacity="0.15" stroke-width="2" stroke-miterlimit="10"/>
<path d="M230.27 453.915C66.6413 478.937 -31.1286 400.352 11.8953 278.388" stroke="white" stroke-opacity="0.15" stroke-width="2" stroke-miterlimit="10"/>
<path d="M220.985 364.663C88.8606 384.866 9.91236 321.407 44.6523 222.93" stroke="white" stroke-opacity="0.15" stroke-width="2" stroke-miterlimit="10"/>
<path d="M109.652 528.041C72.2655 456.081 94.0516 346.443 158.307 283.153" stroke="white" stroke-opacity="0.15" stroke-width="2" stroke-miterlimit="10"/>
<path d="M25.5666 460.453C-11.8195 388.494 28.7882 293.982 116.264 249.353" stroke="white" stroke-opacity="0.15" stroke-width="2" stroke-miterlimit="10"/>
<path d="M24.3551 347.472C-13.0311 275.512 27.8474 206.294 115.655 192.865C138.74 127.417 228.639 63.4776 316.447 50.0495C339.532 -15.3991 388.559 -10.1199 425.939 61.8329C250.33 88.6959 70.5261 216.574 24.3551 347.472Z" stroke="white" stroke-opacity="0.15" stroke-width="2" stroke-miterlimit="10"/>
<path d="M11.8953 278.389C54.9192 156.432 222.446 37.2778 386.075 12.2558" stroke="white" stroke-opacity="0.15" stroke-width="2" stroke-miterlimit="10"/>
<path d="M44.6523 222.93C79.3923 124.446 214.663 28.2355 346.794 8.02565" stroke="white" stroke-opacity="0.15" stroke-width="2" stroke-miterlimit="10"/>
<path d="M109.963 221.211C72.5769 149.251 94.2885 108.297 158.462 129.738" stroke="white" stroke-opacity="0.15" stroke-width="2" stroke-miterlimit="10"/>
<path d="M254.039 118.74C216.653 46.7804 206.115 28.7634 230.5 78.503" stroke="white" stroke-opacity="0.15" stroke-width="2" stroke-miterlimit="10"/>
<path d="M425.945 61.8397C388.559 -10.1199 339.539 -15.3991 316.453 50.0562C404.261 36.6281 456.726 78.8008 433.641 144.249C521.448 130.821 622.94 178.273 660.326 250.233C706.504 119.336 601.567 34.9902 425.952 61.8464L425.945 61.8397Z" stroke="white" stroke-opacity="0.15" stroke-width="2" stroke-miterlimit="10"/>
<path d="M386.075 12.2558C549.704 -12.7663 647.474 65.8194 604.45 187.782" stroke="white" stroke-opacity="0.15" stroke-width="2" stroke-miterlimit="10"/>
<path d="M346.794 8.02565C478.918 -12.1775 557.866 51.2813 523.127 149.759" stroke="white" stroke-opacity="0.15" stroke-width="2" stroke-miterlimit="10"/>
<path d="M575.023 69.657C537.637 -2.30263 455.244 -9.32804 390.989 53.9615" stroke="white" stroke-opacity="0.15" stroke-width="2" stroke-miterlimit="10"/>
<path d="M659.101 137.238C621.715 65.2779 520.5 43.1256 433.025 87.7484" stroke="white" stroke-opacity="0.15" stroke-width="2" stroke-miterlimit="10"/>
<path d="M669.016 333.59C669.016 327.566 673.618 320.284 675.033 314.429C677.645 303.614 681.273 289.143 682.437 278.077C683.635 266.693 684.637 251.431 684.576 239.986C684.528 230.876 683.398 218.727 682.072 209.711C680.84 201.353 678.383 190.327 676.339 182.124C674.986 176.683 672.468 169.63 670.749 164.297C667.805 155.187 662.661 143.403 657.985 135.051C655.223 130.117 651.636 123.478 648.638 118.686C645.653 113.907 641.579 107.559 638.046 103.16C634.527 98.7738 630.148 92.6553 626.29 88.5673C618.636 80.4522 608.314 69.6637 599.733 62.5368C594.176 57.9209 586.474 52.1341 580.559 47.9851C575.923 44.7364 569.48 40.8109 564.607 37.9073C559.734 35.0037 553.02 31.491 547.917 29.0071C542.699 26.469 535.674 23.1661 530.226 21.1695C520.94 17.7651 508.44 13.5417 498.958 10.7397C493.212 9.04088 485.368 7.40297 479.5 6.1847C470.966 4.40466 459.426 2.86827 450.77 1.84627C444.598 1.11531 436.307 0.661837 430.101 0.343731C422.175 -0.062361 411.59 0.0323939 403.658 0.23544C397.181 0.397877 388.681 0.993479 382.096 1.56201C375.51 2.13054 366.759 3.16607 360.222 4.1407C352.702 5.26422 342.693 6.91566 335.261 8.54003C328.784 9.95459 320.148 11.8903 313.732 13.562C306.965 15.3285 297.645 17.8666 291.31 20.0121C284.975 22.1577 276.252 24.8514 270.201 27.2338C264.15 29.6162 256.029 32.6687 250.032 35.1932C244.036 37.7178 236.097 41.2237 230.236 44.0528C224.429 46.8549 216.639 50.5638 211.029 53.6907C205.418 56.8177 197.852 60.8718 192.329 64.1138C186.806 67.3558 179.625 71.9378 174.157 75.3084C168.688 78.679 161.636 83.6333 156.445 87.322C151.254 91.0106 144.513 95.9514 139.431 100.006C134.348 104.06 127.499 109.393 122.673 113.752C113.286 122.232 100.989 133.792 92.0887 142.781C87.3782 147.539 81.4765 154.239 77.1518 159.342C72.5428 164.777 66.5126 172.141 62.3097 177.908C58.6279 182.964 53.7144 189.711 50.3101 194.957C46.0125 201.59 40.5304 210.591 36.6591 217.481C30.5883 228.277 23.8203 243.39 19.0828 254.835C10.9341 274.517 3.3405 304.839 1.62144 324.514C0.633315 335.884 -0.490165 351.14 0.227238 362.531C0.795746 371.533 2.02075 383.506 3.28635 392.433C4.0782 397.996 5.85818 405.286 7.07641 410.768C8.90376 418.978 12.2133 429.922 15.4348 437.523C18.6564 445.123 23.0082 455.249 26.6764 462.646C29.1873 467.716 32.9774 474.247 36.023 479.012C40.6252 486.22 47.2239 496.338 58.3707 509.13C65.6937 517.543 76.3126 528.068 84.9282 535.161C90.505 539.75 98.1866 545.564 104.102 549.712C108.738 552.961 115.188 556.893 120.054 559.79C129.529 565.428 143.667 572.311 154.435 576.528C163.646 580.129 176.093 584.623 185.703 586.958C191.53 588.372 199.266 590.423 205.161 591.513C213.736 593.097 225.214 595.019 233.891 595.851C240.077 596.447 248.347 597.144 254.56 597.354C262.492 597.625 273.077 597.692 281.003 597.462C287.48 597.273 296.115 596.738 302.565 596.136C310.051 595.432 320.027 594.322 327.451 593.103L327.444 593.097C334.043 592.007 342.841 590.504 349.393 589.144C356.289 587.709 365.487 585.706 372.262 583.77C378.597 581.963 387.111 579.797 393.344 577.672C399.537 575.56 407.739 572.921 413.986 570.626C420.233 568.332 428.531 565.164 434.628 562.491C440.591 559.878 448.611 556.548 454.425 553.631C465.93 547.865 481.239 540.075 492.339 533.57C497.861 530.328 505.151 525.841 510.511 522.376C515.871 518.91 522.835 514.017 528.114 510.437C533.414 506.843 540.053 501.618 545.23 497.678C550.408 493.739 557.162 488.291 561.988 483.932C571.375 475.452 583.639 463.864 592.572 454.903C597.296 450.166 603.164 443.431 607.509 438.342C611.597 433.55 616.883 427.018 620.68 421.99C624.95 416.331 630.473 408.656 634.351 402.727C638.676 396.115 644.212 387.133 648.002 380.203C650.966 374.781 654.844 367.506 657.382 361.874C661.152 353.509 665.822 342.192 669.016 333.59ZM669.016 333.59C677.801 308.69 675.615 279.681 660.306 250.219M660.306 250.219C622.92 178.26 521.434 130.814 433.62 144.236M660.306 250.219C622.92 178.26 521.427 130.808 433.62 144.236M433.62 144.236C440.672 124.249 440.672 106.429 434.777 91.701C421.363 58.2119 377.426 40.7161 316.433 50.0427C228.625 63.4708 138.727 127.41 115.641 192.859C106.931 217.549 108.975 238.923 119.607 255.255C137.163 282.213 178.143 295.417 232.828 287.052C320.636 273.624 410.535 209.684 433.62 144.236Z" stroke="white" stroke-opacity="0.15" stroke-width="2" stroke-miterlimit="10"/>
</g>
</svg>
