{
  "asset": {
    "generator": "glTF-Transform v4.2.1",
    "version": "2.0"
  },
  "accessors": [
    {
      "type": "VEC3",
      "componentType": 5126,
      "count": 14832,
      "max": [
        5.226490020751953,
        1.1284799575805664,
        2.3773159980773926
      ],
      "min": [
        -4.99118185043335,
        -0.10683800280094147,
        -2.380173921585083
      ],
      "bufferView": 0,
      "byteOffset": 0
    },
    {
      "type": "VEC3",
      "componentType": 5126,
      "count": 14832,
      "bufferView": 0,
      "byteOffset": 12
    },
    {
      "type": "VEC2",
      "componentType": 5126,
      "count": 14832,
      "bufferView": 0,
      "byteOffset": 24
    },
    {
      "type": "VEC3",
      "componentType": 5126,
      "count": 192,
      "max": [
        2.7118430137634277,
        2.951809883117676,
        0.10826099663972855
      ],
      "min": [
        -1.4017850160598755,
        2.921950101852417,
        -0.12695099413394928
      ],
      "bufferView": 1,
      "byteOffset": 0
    },
    {
      "type": "VEC3",
      "componentType": 5126,
      "count": 192,
      "bufferView": 1,
      "byteOffset": 12
    },
    {
      "type": "VEC2",
      "componentType": 5126,
      "count": 192,
      "bufferView": 1,
      "byteOffset": 24
    },
    {
      "type": "VEC3",
      "componentType": 5126,
      "count": 1866,
      "max": [
        4.227505207061768,
        3.005228042602539,
        2.2933731079101562
      ],
      "min": [
        -5.863932132720947,
        0.9137499928474426,
        -2.2983319759368896
      ],
      "bufferView": 2,
      "byteOffset": 0
    },
    {
      "type": "VEC3",
      "componentType": 5126,
      "count": 1866,
      "bufferView": 2,
      "byteOffset": 12
    },
    {
      "type": "VEC2",
      "componentType": 5126,
      "count": 1866,
      "bufferView": 2,
      "byteOffset": 24
    },
    {
      "type": "VEC3",
      "componentType": 5126,
      "count": 11748,
      "max": [
        3.8505098819732666,
        2.1317150592803955,
        1.0893919467926025
      ],
      "min": [
        -4.4003400802612305,
        0.916608989238739,
        -1.104341983795166
      ],
      "bufferView": 3,
      "byteOffset": 0
    },
    {
      "type": "VEC3",
      "componentType": 5126,
      "count": 11748,
      "bufferView": 3,
      "byteOffset": 12
    },
    {
      "type": "VEC2",
      "componentType": 5126,
      "count": 11748,
      "bufferView": 3,
      "byteOffset": 24
    },
    {
      "type": "VEC3",
      "componentType": 5126,
      "count": 51924,
      "max": [
        4.267457962036133,
        2.9513819217681885,
        3.3838210105895996
      ],
      "min": [
        -5.662712097167969,
        0.3166239857673645,
        -3.4562389850616455
      ],
      "bufferView": 4,
      "byteOffset": 0
    },
    {
      "type": "VEC3",
      "componentType": 5126,
      "count": 51924,
      "bufferView": 4,
      "byteOffset": 12
    },
    {
      "type": "VEC2",
      "componentType": 5126,
      "count": 51924,
      "bufferView": 4,
      "byteOffset": 24
    },
    {
      "type": "VEC3",
      "componentType": 5126,
      "count": 1740,
      "max": [
        5.437524795532227,
        4.40960693359375,
        3.4625020027160645
      ],
      "min": [
        0.7118819952011108,
        0.2791210114955902,
        -3.537015914916992
      ],
      "bufferView": 5,
      "byteOffset": 0
    },
    {
      "type": "VEC3",
      "componentType": 5126,
      "count": 1740,
      "bufferView": 5,
      "byteOffset": 12
    },
    {
      "type": "VEC2",
      "componentType": 5126,
      "count": 1740,
      "bufferView": 5,
      "byteOffset": 24
    },
    {
      "type": "VEC3",
      "componentType": 5126,
      "count": 3270,
      "max": [
        6.976606845855713,
        0.7144880294799805,
        2.669718027114868
      ],
      "min": [
        -6.340465068817139,
        -0.19411799311637878,
        -2.6670780181884766
      ],
      "bufferView": 6,
      "byteOffset": 0
    },
    {
      "type": "VEC3",
      "componentType": 5126,
      "count": 3270,
      "bufferView": 6,
      "byteOffset": 12
    },
    {
      "type": "VEC2",
      "componentType": 5126,
      "count": 3270,
      "bufferView": 6,
      "byteOffset": 24
    },
    {
      "type": "SCALAR",
      "componentType": 5123,
      "count": 1854,
      "bufferView": 7,
      "byteOffset": 0
    },
    {
      "type": "SCALAR",
      "componentType": 5123,
      "count": 1416,
      "bufferView": 7,
      "byteOffset": 3708
    },
    {
      "type": "VEC3",
      "componentType": 5126,
      "count": 1248,
      "max": [
        -2.1979639530181885,
        3.0068070888519287,
        1.7992089986801147
      ],
      "min": [
        -5.755410194396973,
        1.9324469566345215,
        -1.811905026435852
      ],
      "bufferView": 8,
      "byteOffset": 0
    },
    {
      "type": "VEC3",
      "componentType": 5126,
      "count": 1248,
      "bufferView": 8,
      "byteOffset": 12
    },
    {
      "type": "VEC2",
      "componentType": 5126,
      "count": 1248,
      "bufferView": 8,
      "byteOffset": 24
    },
    {
      "type": "VEC3",
      "componentType": 5126,
      "count": 2682,
      "max": [
        6.461341857910156,
        3.2444849014282227,
        2.3305089473724365
      ],
      "min": [
        -6.188321113586426,
        0.051468998193740845,
        -2.335642099380493
      ],
      "bufferView": 9,
      "byteOffset": 0
    },
    {
      "type": "VEC3",
      "componentType": 5126,
      "count": 2682,
      "bufferView": 9,
      "byteOffset": 12
    },
    {
      "type": "VEC2",
      "componentType": 5126,
      "count": 2682,
      "bufferView": 9,
      "byteOffset": 24
    },
    {
      "type": "VEC3",
      "componentType": 5126,
      "count": 972,
      "max": [
        3.057594060897827,
        4.186830997467041,
        1.948045015335083
      ],
      "min": [
        -5.722839832305908,
        1.6787749528884888,
        -1.9593889713287354
      ],
      "bufferView": 10,
      "byteOffset": 0
    },
    {
      "type": "VEC3",
      "componentType": 5126,
      "count": 972,
      "bufferView": 10,
      "byteOffset": 12
    },
    {
      "type": "VEC2",
      "componentType": 5126,
      "count": 972,
      "bufferView": 10,
      "byteOffset": 24
    },
    {
      "type": "VEC3",
      "componentType": 5126,
      "count": 6420,
      "max": [
        6.251089096069336,
        2.629236936569214,
        1.9539680480957031
      ],
      "min": [
        4.540166854858398,
        0.9601470232009888,
        -1.9649360179901123
      ],
      "bufferView": 11,
      "byteOffset": 0
    },
    {
      "type": "VEC3",
      "componentType": 5126,
      "count": 6420,
      "bufferView": 11,
      "byteOffset": 12
    },
    {
      "type": "VEC2",
      "componentType": 5126,
      "count": 6420,
      "bufferView": 11,
      "byteOffset": 24
    }
  ],
  "bufferViews": [
    {
      "buffer": 0,
      "byteOffset": 0,
      "byteLength": 474624,
      "byteStride": 32,
      "target": 34962
    },
    {
      "buffer": 0,
      "byteOffset": 474624,
      "byteLength": 6144,
      "byteStride": 32,
      "target": 34962
    },
    {
      "buffer": 0,
      "byteOffset": 480768,
      "byteLength": 59712,
      "byteStride": 32,
      "target": 34962
    },
    {
      "buffer": 0,
      "byteOffset": 540480,
      "byteLength": 375936,
      "byteStride": 32,
      "target": 34962
    },
    {
      "buffer": 0,
      "byteOffset": 916416,
      "byteLength": 1661568,
      "byteStride": 32,
      "target": 34962
    },
    {
      "buffer": 0,
      "byteOffset": 2577984,
      "byteLength": 55680,
      "byteStride": 32,
      "target": 34962
    },
    {
      "buffer": 0,
      "byteOffset": 2633664,
      "byteLength": 104640,
      "byteStride": 32,
      "target": 34962
    },
    {
      "buffer": 0,
      "byteOffset": 2738304,
      "byteLength": 6540,
      "target": 34963
    },
    {
      "buffer": 0,
      "byteOffset": 2744844,
      "byteLength": 39936,
      "byteStride": 32,
      "target": 34962
    },
    {
      "buffer": 0,
      "byteOffset": 2784780,
      "byteLength": 85824,
      "byteStride": 32,
      "target": 34962
    },
    {
      "buffer": 0,
      "byteOffset": 2870604,
      "byteLength": 31104,
      "byteStride": 32,
      "target": 34962
    },
    {
      "buffer": 0,
      "byteOffset": 2901708,
      "byteLength": 205440,
      "byteStride": 32,
      "target": 34962
    }
  ],
  "buffers": [
    {
      "uri": "buffer.bin",
      "byteLength": 3107148
    }
  ],
  "materials": [
    {
      "name": "Hover_1.003",
      "doubleSided": true,
      "pbrMetallicRoughness": {
        "metallicFactor": 0
      }
    },
    {
      "name": "Material.013",
      "doubleSided": true,
      "pbrMetallicRoughness": {
        "metallicFactor": 0
      }
    },
    {
      "name": "Shuttel_Inside.002",
      "doubleSided": true,
      "pbrMetallicRoughness": {
        "metallicFactor": 0
      }
    },
    {
      "name": "Material.020",
      "doubleSided": true,
      "pbrMetallicRoughness": {
        "metallicFactor": 0
      }
    },
    {
      "name": "Material.042",
      "doubleSided": true,
      "pbrMetallicRoughness": {
        "metallicFactor": 0
      }
    },
    {
      "name": "Shuttle_Rest.002",
      "doubleSided": true,
      "pbrMetallicRoughness": {
        "metallicFactor": 0
      }
    },
    {
      "name": "Shuttel_Legs.001",
      "doubleSided": true,
      "pbrMetallicRoughness": {
        "metallicFactor": 0
      }
    },
    {
      "name": "Shuttel_Legs.001_NONE",
      "doubleSided": true,
      "pbrMetallicRoughness": {
        "metallicFactor": 0
      }
    },
    {
      "name": "Material.026",
      "doubleSided": true,
      "pbrMetallicRoughness": {
        "metallicFactor": 0
      }
    },
    {
      "name": "Material.023",
      "doubleSided": true,
      "pbrMetallicRoughness": {
        "metallicFactor": 0
      }
    },
    {
      "name": "Glass.001",
      "doubleSided": true,
      "pbrMetallicRoughness": {
        "metallicFactor": 0
      }
    },
    {
      "name": "Buster.001",
      "doubleSided": true,
      "pbrMetallicRoughness": {
        "metallicFactor": 0
      }
    }
  ],
  "meshes": [
    {
      "primitives": [
        {
          "attributes": {
            "POSITION": 0,
            "NORMAL": 1,
            "TEXCOORD_0": 2
          },
          "mode": 4,
          "material": 0
        }
      ]
    },
    {
      "primitives": [
        {
          "attributes": {
            "POSITION": 3,
            "NORMAL": 4,
            "TEXCOORD_0": 5
          },
          "mode": 4,
          "material": 1
        }
      ]
    },
    {
      "primitives": [
        {
          "attributes": {
            "POSITION": 6,
            "NORMAL": 7,
            "TEXCOORD_0": 8
          },
          "mode": 4,
          "material": 2
        }
      ]
    },
    {
      "primitives": [
        {
          "attributes": {
            "POSITION": 9,
            "NORMAL": 10,
            "TEXCOORD_0": 11
          },
          "mode": 4,
          "material": 3
        }
      ]
    },
    {
      "primitives": [
        {
          "attributes": {
            "POSITION": 12,
            "NORMAL": 13,
            "TEXCOORD_0": 14
          },
          "mode": 4,
          "material": 4
        }
      ]
    },
    {
      "primitives": [
        {
          "attributes": {
            "POSITION": 15,
            "NORMAL": 16,
            "TEXCOORD_0": 17
          },
          "mode": 4,
          "material": 5
        }
      ]
    },
    {
      "primitives": [
        {
          "attributes": {
            "POSITION": 18,
            "NORMAL": 19,
            "TEXCOORD_0": 20
          },
          "mode": 4,
          "material": 6,
          "indices": 21
        },
        {
          "attributes": {
            "POSITION": 18,
            "NORMAL": 19,
            "TEXCOORD_0": 20
          },
          "mode": 4,
          "material": 7,
          "indices": 22
        }
      ]
    },
    {
      "primitives": [
        {
          "attributes": {
            "POSITION": 23,
            "NORMAL": 24,
            "TEXCOORD_0": 25
          },
          "mode": 4,
          "material": 8
        }
      ]
    },
    {
      "primitives": [
        {
          "attributes": {
            "POSITION": 26,
            "NORMAL": 27,
            "TEXCOORD_0": 28
          },
          "mode": 4,
          "material": 9
        }
      ]
    },
    {
      "primitives": [
        {
          "attributes": {
            "POSITION": 29,
            "NORMAL": 30,
            "TEXCOORD_0": 31
          },
          "mode": 4,
          "material": 10
        }
      ]
    },
    {
      "primitives": [
        {
          "attributes": {
            "POSITION": 32,
            "NORMAL": 33,
            "TEXCOORD_0": 34
          },
          "mode": 4,
          "material": 11
        }
      ]
    }
  ],
  "nodes": [
    {
      "name": "empty_2",
      "children": [
        1,
        2,
        3,
        4,
        5,
        6,
        7,
        8,
        9,
        10,
        11
      ]
    },
    {
      "name": "o Shuttle.015_Cube.014",
      "mesh": 0
    },
    {
      "name": "o Shuttle.014_Cube.013",
      "mesh": 1
    },
    {
      "name": "o Shuttle.013_Cube.012",
      "mesh": 2
    },
    {
      "name": "o Shuttle.012_Cube.011",
      "mesh": 3
    },
    {
      "name": "o Shuttle.011_Cube.010",
      "mesh": 4
    },
    {
      "name": "o Shuttle.010_Cube.009",
      "mesh": 5
    },
    {
      "name": "o Shuttle.009_Cube.008",
      "mesh": 6
    },
    {
      "name": "o Shuttle.008_Cube.007",
      "mesh": 7
    },
    {
      "name": "o Shuttle.002_Cube.006",
      "mesh": 8
    },
    {
      "name": "o Shuttle.000_Cube.002",
      "mesh": 9
    },
    {
      "name": "o Shuttle.024_Cube.032",
      "mesh": 10
    }
  ],
  "scenes": [
    {
      "name": "empty_1",
      "nodes": [
        0
      ]
    }
  ],
  "scene": 0
}