<svg width="508" height="144" viewBox="0 0 508 144" fill="none" xmlns="http://www.w3.org/2000/svg">
<path d="M54.5312 70.7422C54.5312 65.6484 56.3984 61.2734 60.1328 57.6172C63.8516 53.9609 68.3203 52.1328 73.5391 52.1328C78.6953 52.1328 83.1172 53.9766 86.8047 57.6641C90.5078 61.3516 92.3594 65.7812 92.3594 70.9531C92.3594 76.1562 90.5 80.5703 86.7812 84.1953C83.0469 87.8359 78.5391 89.6562 73.2578 89.6562C68.5859 89.6562 64.3906 88.0391 60.6719 84.8047C56.5781 81.2266 54.5312 76.5391 54.5312 70.7422ZM60.0391 70.8125C60.0391 74.8125 61.3828 78.1016 64.0703 80.6797C66.7422 83.2578 69.8281 84.5469 73.3281 84.5469C77.125 84.5469 80.3281 83.2344 82.9375 80.6094C85.5469 77.9531 86.8516 74.7188 86.8516 70.9062C86.8516 67.0469 85.5625 63.8125 82.9844 61.2031C80.4219 58.5781 77.25 57.2656 73.4688 57.2656C69.7031 57.2656 66.5234 58.5781 63.9297 61.2031C61.3359 63.7969 60.0391 67 60.0391 70.8125ZM111.484 73.5781L122.688 89H116.008L105.672 74.1875H104.688V89H99.2266V52.8125H105.625C110.406 52.8125 113.859 53.7109 115.984 55.5078C118.328 57.5078 119.5 60.1484 119.5 63.4297C119.5 65.9922 118.766 68.1953 117.297 70.0391C115.828 71.8828 113.891 73.0625 111.484 73.5781ZM104.688 69.4297H106.422C111.594 69.4297 114.18 67.4531 114.18 63.5C114.18 59.7969 111.664 57.9453 106.633 57.9453H104.688V69.4297ZM133.609 52.8125V89H128.148V52.8125H133.609ZM162.273 57.9453H147.766V66.6406H161.852V71.7734H147.766V83.8672H162.273V89H142.305V52.8125H162.273V57.9453ZM169.445 89V50.3516L195.836 77.9609V52.8125H201.297V91.2031L174.906 63.6641V89H169.445ZM230.453 58.2031L226.023 60.8281C225.195 59.3906 224.406 58.4531 223.656 58.0156C222.875 57.5156 221.867 57.2656 220.633 57.2656C219.117 57.2656 217.859 57.6953 216.859 58.5547C215.859 59.3984 215.359 60.4609 215.359 61.7422C215.359 63.5078 216.672 64.9297 219.297 66.0078L222.906 67.4844C225.844 68.6719 227.992 70.125 229.352 71.8438C230.711 73.5469 231.391 75.6406 231.391 78.125C231.391 81.4531 230.281 84.2031 228.062 86.375C225.828 88.5625 223.055 89.6562 219.742 89.6562C216.602 89.6562 214.008 88.7266 211.961 86.8672C209.945 85.0078 208.688 82.3906 208.188 79.0156L213.719 77.7969C213.969 79.9219 214.406 81.3906 215.031 82.2031C216.156 83.7656 217.797 84.5469 219.953 84.5469C221.656 84.5469 223.07 83.9766 224.195 82.8359C225.32 81.6953 225.883 80.25 225.883 78.5C225.883 77.7969 225.781 77.1562 225.578 76.5781C225.391 75.9844 225.086 75.4453 224.664 74.9609C224.258 74.4609 223.727 74 223.07 73.5781C222.414 73.1406 221.633 72.7266 220.727 72.3359L217.234 70.8828C212.281 68.7891 209.805 65.7266 209.805 61.6953C209.805 58.9766 210.844 56.7031 212.922 54.875C215 53.0312 217.586 52.1094 220.68 52.1094C224.852 52.1094 228.109 54.1406 230.453 58.2031ZM273.25 58.2031L268.82 60.8281C267.992 59.3906 267.203 58.4531 266.453 58.0156C265.672 57.5156 264.664 57.2656 263.43 57.2656C261.914 57.2656 260.656 57.6953 259.656 58.5547C258.656 59.3984 258.156 60.4609 258.156 61.7422C258.156 63.5078 259.469 64.9297 262.094 66.0078L265.703 67.4844C268.641 68.6719 270.789 70.125 272.148 71.8438C273.508 73.5469 274.188 75.6406 274.188 78.125C274.188 81.4531 273.078 84.2031 270.859 86.375C268.625 88.5625 265.852 89.6562 262.539 89.6562C259.398 89.6562 256.805 88.7266 254.758 86.8672C252.742 85.0078 251.484 82.3906 250.984 79.0156L256.516 77.7969C256.766 79.9219 257.203 81.3906 257.828 82.2031C258.953 83.7656 260.594 84.5469 262.75 84.5469C264.453 84.5469 265.867 83.9766 266.992 82.8359C268.117 81.6953 268.68 80.25 268.68 78.5C268.68 77.7969 268.578 77.1562 268.375 76.5781C268.188 75.9844 267.883 75.4453 267.461 74.9609C267.055 74.4609 266.523 74 265.867 73.5781C265.211 73.1406 264.43 72.7266 263.523 72.3359L260.031 70.8828C255.078 68.7891 252.602 65.7266 252.602 61.6953C252.602 58.9766 253.641 56.7031 255.719 54.875C257.797 53.0312 260.383 52.1094 263.477 52.1094C267.648 52.1094 270.906 54.1406 273.25 58.2031ZM287.758 73.3672L275.945 52.8125H282.227L290.5 67.2734L298.797 52.8125H305.078L293.219 73.3672V89H287.758V73.3672ZM328.609 58.2031L324.18 60.8281C323.352 59.3906 322.562 58.4531 321.812 58.0156C321.031 57.5156 320.023 57.2656 318.789 57.2656C317.273 57.2656 316.016 57.6953 315.016 58.5547C314.016 59.3984 313.516 60.4609 313.516 61.7422C313.516 63.5078 314.828 64.9297 317.453 66.0078L321.062 67.4844C324 68.6719 326.148 70.125 327.508 71.8438C328.867 73.5469 329.547 75.6406 329.547 78.125C329.547 81.4531 328.438 84.2031 326.219 86.375C323.984 88.5625 321.211 89.6562 317.898 89.6562C314.758 89.6562 312.164 88.7266 310.117 86.8672C308.102 85.0078 306.844 82.3906 306.344 79.0156L311.875 77.7969C312.125 79.9219 312.562 81.3906 313.188 82.2031C314.312 83.7656 315.953 84.5469 318.109 84.5469C319.812 84.5469 321.227 83.9766 322.352 82.8359C323.477 81.6953 324.039 80.25 324.039 78.5C324.039 77.7969 323.938 77.1562 323.734 76.5781C323.547 75.9844 323.242 75.4453 322.82 74.9609C322.414 74.4609 321.883 74 321.227 73.5781C320.57 73.1406 319.789 72.7266 318.883 72.3359L315.391 70.8828C310.438 68.7891 307.961 65.7266 307.961 61.6953C307.961 58.9766 309 56.7031 311.078 54.875C313.156 53.0312 315.742 52.1094 318.836 52.1094C323.008 52.1094 326.266 54.1406 328.609 58.2031ZM346.82 57.9453V89H341.359V57.9453H333.039V52.8125H355.117V57.9453H346.82ZM379.961 57.9453H365.453V66.6406H379.539V71.7734H365.453V83.8672H379.961V89H359.992V52.8125H379.961V57.9453ZM385.867 89L393.484 50.0938L405.906 78.2188L418.773 50.0938L425.617 89H420.016L416.523 67.1562L405.812 90.6641L395.406 67.1328L391.516 89H385.867ZM453.766 58.2031L449.336 60.8281C448.508 59.3906 447.719 58.4531 446.969 58.0156C446.188 57.5156 445.18 57.2656 443.945 57.2656C442.43 57.2656 441.172 57.6953 440.172 58.5547C439.172 59.3984 438.672 60.4609 438.672 61.7422C438.672 63.5078 439.984 64.9297 442.609 66.0078L446.219 67.4844C449.156 68.6719 451.305 70.125 452.664 71.8438C454.023 73.5469 454.703 75.6406 454.703 78.125C454.703 81.4531 453.594 84.2031 451.375 86.375C449.141 88.5625 446.367 89.6562 443.055 89.6562C439.914 89.6562 437.32 88.7266 435.273 86.8672C433.258 85.0078 432 82.3906 431.5 79.0156L437.031 77.7969C437.281 79.9219 437.719 81.3906 438.344 82.2031C439.469 83.7656 441.109 84.5469 443.266 84.5469C444.969 84.5469 446.383 83.9766 447.508 82.8359C448.633 81.6953 449.195 80.25 449.195 78.5C449.195 77.7969 449.094 77.1562 448.891 76.5781C448.703 75.9844 448.398 75.4453 447.977 74.9609C447.57 74.4609 447.039 74 446.383 73.5781C445.727 73.1406 444.945 72.7266 444.039 72.3359L440.547 70.8828C435.594 68.7891 433.117 65.7266 433.117 61.6953C433.117 58.9766 434.156 56.7031 436.234 54.875C438.312 53.0312 440.898 52.1094 443.992 52.1094C448.164 52.1094 451.422 54.1406 453.766 58.2031Z" fill="white"/>
<path d="M43.1416 63.0039C42.3981 65.5745 42 68.2836 42 71.082C42 71.0891 42 71.0965 42 71.1035H8.82422V57.4658L43.1416 63.0039ZM50.6172 50.3477C47.9561 53.0366 45.8097 56.2001 44.3232 59.6904L0 35.625V10.5371L50.6172 50.3477ZM60.9092 43.4463C57.6652 44.7912 54.7056 46.649 52.1396 48.9131L13.749 0H37.8643L60.9092 43.4463ZM73 41.0029C70.1828 41.0272 67.4549 41.4092 64.8623 42.1045L59.3623 8.02246H73V41.0029Z" fill="white"/>
<path d="M43.1416 80.0996C42.3981 77.529 42 74.8199 42 72.0215C42 72.0145 42 72.007 42 72H8.82422V85.6377L43.1416 80.0996ZM50.6172 92.7559C47.9561 90.0669 45.8097 86.9034 44.3232 83.4131L0 107.479V132.566L50.6172 92.7559ZM60.9092 99.6572C57.6652 98.3123 54.7056 96.4545 52.1396 94.1904L13.749 143.104H37.8643L60.9092 99.6572ZM73 102.101C70.1828 102.076 67.4549 101.694 64.8623 100.999L59.3623 135.081H73V102.101Z" fill="white"/>
</svg>
