<svg width="144" height="90" viewBox="0 0 144 90" fill="none" xmlns="http://www.w3.org/2000/svg">
<path d="M80.0996 43.1416C77.529 42.3981 74.8199 42 72.0215 42C72.0145 42 72.007 42 72 42V8.82422H85.6377L80.0996 43.1416ZM92.7559 50.6172C90.0669 47.9561 86.9034 45.8097 83.4131 44.3232L107.479 0H132.566L92.7559 50.6172ZM99.6572 60.9092C98.3123 57.6652 96.4545 54.7056 94.1904 52.1396L143.104 13.749V37.8643L99.6572 60.9092ZM102.101 73C102.076 70.1828 101.694 67.4549 100.999 64.8623L135.081 59.3623V73H102.101Z" fill="white"/>
<path d="M63.0039 43.1416C65.5745 42.3981 68.2836 42 71.082 42C71.0891 42 71.0965 42 71.1035 42V8.82422H57.4658L63.0039 43.1416ZM50.3477 50.6172C53.0366 47.9561 56.2001 45.8097 59.6904 44.3232L35.625 0H10.5371L50.3477 50.6172ZM43.4463 60.9092C44.7912 57.6652 46.649 54.7056 48.9131 52.1396L0 13.749V37.8643L43.4463 60.9092ZM41.0029 73C41.0272 70.1828 41.4092 67.4549 42.1045 64.8623L8.02246 59.3623V73H41.0029Z" fill="white"/>
<path d="M51.5312 70.7422C51.5312 65.6484 53.3984 61.2734 57.1328 57.6172C60.8516 53.9609 65.3203 52.1328 70.5391 52.1328C75.6953 52.1328 80.1172 53.9766 83.8047 57.6641C87.5078 61.3516 89.3594 65.7812 89.3594 70.9531C89.3594 76.1562 87.5 80.5703 83.7812 84.1953C80.0469 87.8359 75.5391 89.6562 70.2578 89.6562C65.5859 89.6562 61.3906 88.0391 57.6719 84.8047C53.5781 81.2266 51.5312 76.5391 51.5312 70.7422ZM57.0391 70.8125C57.0391 74.8125 58.3828 78.1016 61.0703 80.6797C63.7422 83.2578 66.8281 84.5469 70.3281 84.5469C74.125 84.5469 77.3281 83.2344 79.9375 80.6094C82.5469 77.9531 83.8516 74.7188 83.8516 70.9062C83.8516 67.0469 82.5625 63.8125 79.9844 61.2031C77.4219 58.5781 74.25 57.2656 70.4688 57.2656C66.7031 57.2656 63.5234 58.5781 60.9297 61.2031C58.3359 63.7969 57.0391 67 57.0391 70.8125Z" fill="white"/>
</svg>
