<svg width="291" height="150" viewBox="0 0 291 150" fill="none" xmlns="http://www.w3.org/2000/svg">
<path d="M54.5312 70.7422C54.5312 65.6484 56.3984 61.2734 60.1328 57.6172C63.8516 53.9609 68.3203 52.1328 73.5391 52.1328C78.6953 52.1328 83.1172 53.9766 86.8047 57.6641C90.5078 61.3516 92.3594 65.7812 92.3594 70.9531C92.3594 76.1562 90.5 80.5703 86.7812 84.1953C83.0469 87.8359 78.5391 89.6562 73.2578 89.6562C68.5859 89.6562 64.3906 88.0391 60.6719 84.8047C56.5781 81.2266 54.5312 76.5391 54.5312 70.7422ZM60.0391 70.8125C60.0391 74.8125 61.3828 78.1016 64.0703 80.6797C66.7422 83.2578 69.8281 84.5469 73.3281 84.5469C77.125 84.5469 80.3281 83.2344 82.9375 80.6094C85.5469 77.9531 86.8516 74.7188 86.8516 70.9062C86.8516 67.0469 85.5625 63.8125 82.9844 61.2031C80.4219 58.5781 77.25 57.2656 73.4688 57.2656C69.7031 57.2656 66.5234 58.5781 63.9297 61.2031C61.3359 63.7969 60.0391 67 60.0391 70.8125ZM111.484 73.5781L122.688 89H116.008L105.672 74.1875H104.688V89H99.2266V52.8125H105.625C110.406 52.8125 113.859 53.7109 115.984 55.5078C118.328 57.5078 119.5 60.1484 119.5 63.4297C119.5 65.9922 118.766 68.1953 117.297 70.0391C115.828 71.8828 113.891 73.0625 111.484 73.5781ZM104.688 69.4297H106.422C111.594 69.4297 114.18 67.4531 114.18 63.5C114.18 59.7969 111.664 57.9453 106.633 57.9453H104.688V69.4297ZM133.609 52.8125V89H128.148V52.8125H133.609ZM162.273 57.9453H147.766V66.6406H161.852V71.7734H147.766V83.8672H162.273V89H142.305V52.8125H162.273V57.9453ZM169.445 89V50.3516L195.836 77.9609V52.8125H201.297V91.2031L174.906 63.6641V89H169.445ZM230.453 58.2031L226.023 60.8281C225.195 59.3906 224.406 58.4531 223.656 58.0156C222.875 57.5156 221.867 57.2656 220.633 57.2656C219.117 57.2656 217.859 57.6953 216.859 58.5547C215.859 59.3984 215.359 60.4609 215.359 61.7422C215.359 63.5078 216.672 64.9297 219.297 66.0078L222.906 67.4844C225.844 68.6719 227.992 70.125 229.352 71.8438C230.711 73.5469 231.391 75.6406 231.391 78.125C231.391 81.4531 230.281 84.2031 228.062 86.375C225.828 88.5625 223.055 89.6562 219.742 89.6562C216.602 89.6562 214.008 88.7266 211.961 86.8672C209.945 85.0078 208.688 82.3906 208.188 79.0156L213.719 77.7969C213.969 79.9219 214.406 81.3906 215.031 82.2031C216.156 83.7656 217.797 84.5469 219.953 84.5469C221.656 84.5469 223.07 83.9766 224.195 82.8359C225.32 81.6953 225.883 80.25 225.883 78.5C225.883 77.7969 225.781 77.1562 225.578 76.5781C225.391 75.9844 225.086 75.4453 224.664 74.9609C224.258 74.4609 223.727 74 223.07 73.5781C222.414 73.1406 221.633 72.7266 220.727 72.3359L217.234 70.8828C212.281 68.7891 209.805 65.7266 209.805 61.6953C209.805 58.9766 210.844 56.7031 212.922 54.875C215 53.0312 217.586 52.1094 220.68 52.1094C224.852 52.1094 228.109 54.1406 230.453 58.2031Z" fill="white"/>
<path d="M106.797 106.203L102.367 108.828C101.539 107.391 100.75 106.453 100 106.016C99.2188 105.516 98.2109 105.266 96.9766 105.266C95.4609 105.266 94.2031 105.695 93.2031 106.555C92.2031 107.398 91.7031 108.461 91.7031 109.742C91.7031 111.508 93.0156 112.93 95.6406 114.008L99.25 115.484C102.188 116.672 104.336 118.125 105.695 119.844C107.055 121.547 107.734 123.641 107.734 126.125C107.734 129.453 106.625 132.203 104.406 134.375C102.172 136.562 99.3984 137.656 96.0859 137.656C92.9453 137.656 90.3516 136.727 88.3047 134.867C86.2891 133.008 85.0312 130.391 84.5312 127.016L90.0625 125.797C90.3125 127.922 90.75 129.391 91.375 130.203C92.5 131.766 94.1406 132.547 96.2969 132.547C98 132.547 99.4141 131.977 100.539 130.836C101.664 129.695 102.227 128.25 102.227 126.5C102.227 125.797 102.125 125.156 101.922 124.578C101.734 123.984 101.43 123.445 101.008 122.961C100.602 122.461 100.07 122 99.4141 121.578C98.7578 121.141 97.9766 120.727 97.0703 120.336L93.5781 118.883C88.625 116.789 86.1484 113.727 86.1484 109.695C86.1484 106.977 87.1875 104.703 89.2656 102.875C91.3438 101.031 93.9297 100.109 97.0234 100.109C101.195 100.109 104.453 102.141 106.797 106.203ZM121.305 121.367L109.492 100.812H115.773L124.047 115.273L132.344 100.812H138.625L126.766 121.367V137H121.305V121.367ZM162.156 106.203L157.727 108.828C156.898 107.391 156.109 106.453 155.359 106.016C154.578 105.516 153.57 105.266 152.336 105.266C150.82 105.266 149.562 105.695 148.562 106.555C147.562 107.398 147.062 108.461 147.062 109.742C147.062 111.508 148.375 112.93 151 114.008L154.609 115.484C157.547 116.672 159.695 118.125 161.055 119.844C162.414 121.547 163.094 123.641 163.094 126.125C163.094 129.453 161.984 132.203 159.766 134.375C157.531 136.562 154.758 137.656 151.445 137.656C148.305 137.656 145.711 136.727 143.664 134.867C141.648 133.008 140.391 130.391 139.891 127.016L145.422 125.797C145.672 127.922 146.109 129.391 146.734 130.203C147.859 131.766 149.5 132.547 151.656 132.547C153.359 132.547 154.773 131.977 155.898 130.836C157.023 129.695 157.586 128.25 157.586 126.5C157.586 125.797 157.484 125.156 157.281 124.578C157.094 123.984 156.789 123.445 156.367 122.961C155.961 122.461 155.43 122 154.773 121.578C154.117 121.141 153.336 120.727 152.43 120.336L148.938 118.883C143.984 116.789 141.508 113.727 141.508 109.695C141.508 106.977 142.547 104.703 144.625 102.875C146.703 101.031 149.289 100.109 152.383 100.109C156.555 100.109 159.812 102.141 162.156 106.203ZM180.367 105.945V137H174.906V105.945H166.586V100.812H188.664V105.945H180.367ZM213.508 105.945H199V114.641H213.086V119.773H199V131.867H213.508V137H193.539V100.812H213.508V105.945ZM219.414 137L227.031 98.0938L239.453 126.219L252.32 98.0938L259.164 137H253.562L250.07 115.156L239.359 138.664L228.953 115.133L225.062 137H219.414ZM287.312 106.203L282.883 108.828C282.055 107.391 281.266 106.453 280.516 106.016C279.734 105.516 278.727 105.266 277.492 105.266C275.977 105.266 274.719 105.695 273.719 106.555C272.719 107.398 272.219 108.461 272.219 109.742C272.219 111.508 273.531 112.93 276.156 114.008L279.766 115.484C282.703 116.672 284.852 118.125 286.211 119.844C287.57 121.547 288.25 123.641 288.25 126.125C288.25 129.453 287.141 132.203 284.922 134.375C282.688 136.562 279.914 137.656 276.602 137.656C273.461 137.656 270.867 136.727 268.82 134.867C266.805 133.008 265.547 130.391 265.047 127.016L270.578 125.797C270.828 127.922 271.266 129.391 271.891 130.203C273.016 131.766 274.656 132.547 276.812 132.547C278.516 132.547 279.93 131.977 281.055 130.836C282.18 129.695 282.742 128.25 282.742 126.5C282.742 125.797 282.641 125.156 282.438 124.578C282.25 123.984 281.945 123.445 281.523 122.961C281.117 122.461 280.586 122 279.93 121.578C279.273 121.141 278.492 120.727 277.586 120.336L274.094 118.883C269.141 116.789 266.664 113.727 266.664 109.695C266.664 106.977 267.703 104.703 269.781 102.875C271.859 101.031 274.445 100.109 277.539 100.109C281.711 100.109 284.969 102.141 287.312 106.203Z" fill="white"/>
<path d="M43.1416 63.0039C42.3981 65.5745 42 68.2836 42 71.082C42 71.0891 42 71.0965 42 71.1035H8.82422V57.4658L43.1416 63.0039ZM50.6172 50.3477C47.9561 53.0366 45.8097 56.2001 44.3232 59.6904L0 35.625V10.5371L50.6172 50.3477ZM60.9092 43.4463C57.6652 44.7912 54.7056 46.649 52.1396 48.9131L13.749 0H37.8643L60.9092 43.4463ZM73 41.0029C70.1828 41.0272 67.4549 41.4092 64.8623 42.1045L59.3623 8.02246H73V41.0029Z" fill="white"/>
<path d="M43.1416 80.0996C42.3981 77.529 42 74.8199 42 72.0215C42 72.0145 42 72.007 42 72H8.82422V85.6377L43.1416 80.0996ZM50.6172 92.7559C47.9561 90.0669 45.8097 86.9034 44.3232 83.4131L0 107.479V132.566L50.6172 92.7559ZM60.9092 99.6572C57.6652 98.3123 54.7056 96.4545 52.1396 94.1904L13.749 143.104H37.8643L60.9092 99.6572ZM73 102.101C70.1828 102.076 67.4549 101.694 64.8623 100.999L59.3623 135.081H73V102.101Z" fill="white"/>
</svg>
