{
  "asset": {
    "generator": "glTF-Transform v4.2.1",
    "version": "2.0"
  },
  "accessors": [
    {
      "type": "VEC3",
      "componentType": 5126,
      "count": 6452,
      "max": [
        383.6661071777344,
        0,
        383.6661071777344
      ],
      "min": [
        -383.6661071777344,
        -300,
        -383.6661071777344
      ],
      "bufferView": 0,
      "byteOffset": 0
    },
    {
      "type": "VEC3",
      "componentType": 5126,
      "count": 6452,
      "bufferView": 0,
      "byteOffset": 12
    },
    {
      "type": "SCALAR",
      "componentType": 5125,
      "count": 29520,
      "bufferView": 1,
      "byteOffset": 0
    },
    {
      "type": "SCALAR",
      "componentType": 5125,
      "count": 33864,
      "bufferView": 1,
      "byteOffset": 118080
    },
    {
      "type": "VEC3",
      "componentType": 5126,
      "count": 7392,
      "max": [
        383.6661071777344,
        0,
        383.6661071777344
      ],
      "min": [
        -383.6661071777344,
        -300,
        -383.6661071777344
      ],
      "bufferView": 2,
      "byteOffset": 0
    },
    {
      "type": "VEC3",
      "componentType": 5126,
      "count": 7392,
      "bufferView": 2,
      "byteOffset": 12
    }
  ],
  "bufferViews": [
    {
      "buffer": 0,
      "byteOffset": 0,
      "byteLength": 154848,
      "byteStride": 24,
      "target": 34962
    },
    {
      "buffer": 0,
      "byteOffset": 154848,
      "byteLength": 253536,
      "target": 34963
    },
    {
      "buffer": 0,
      "byteOffset": 408384,
      "byteLength": 177408,
      "byteStride": 24,
      "target": 34962
    }
  ],
  "buffers": [
    {
      "uri": "buffer.bin",
      "byteLength": 585792
    }
  ],
  "materials": [
    {
      "pbrMetallicRoughness": {
        "baseColorFactor": [
          0.5906188488006592,
          0.637596845626831,
          0.8549926280975342,
          1
        ],
        "metallicFactor": 0
      }
    },
    {
      "pbrMetallicRoughness": {
        "baseColorFactor": [
          0.5906188488006592,
          0.637596845626831,
          0.8549926280975342,
          1
        ],
        "metallicFactor": 0
      }
    }
  ],
  "meshes": [
    {
      "primitives": [
        {
          "attributes": {
            "POSITION": 0,
            "NORMAL": 1
          },
          "mode": 4,
          "material": 0,
          "indices": 2
        }
      ]
    },
    {
      "primitives": [
        {
          "attributes": {
            "POSITION": 4,
            "NORMAL": 5
          },
          "mode": 4,
          "material": 1,
          "indices": 3
        }
      ]
    }
  ],
  "nodes": [
    {
      "name": "empty_2",
      "mesh": 0
    },
    {
      "name": "empty_3",
      "mesh": 1
    }
  ],
  "scenes": [
    {
      "name": "empty_1",
      "nodes": [
        0,
        1
      ]
    }
  ],
  "scene": 0
}